<?xml version="1.0" standalone="no"?>
<!DOCTYPE svg PUBLIC "-//W3C//DTD SVG 20010904//EN"
 "http://www.w3.org/TR/2001/REC-SVG-20010904/DTD/svg10.dtd">
<svg version="1.0" xmlns="http://www.w3.org/2000/svg"
 width="3000.000000pt" height="1218.000000pt" viewBox="0 0 3000.000000 1218.000000"
 preserveAspectRatio="xMidYMid meet">
<metadata>
Created by potrace 1.10, written by Peter Selinger 2001-2011
</metadata>
<g transform="translate(0.000000,1218.000000) scale(0.100000,-0.100000)"
fill="#38761d" stroke="none">
<path d="M20697 12103 c-2 -4 -8 -29 -11 -55 -6 -38 -11 -47 -29 -50 -17 -2
-23 -11 -25 -35 -3 -27 -8 -33 -26 -33 -18 0 -24 -8 -32 -42 -6 -31 -15 -44
-29 -46 -30 -6 -38 -18 -31 -47 7 -26 8 -26 84 -24 l77 2 11 -54 10 -54 40 0
39 0 9 58 c7 46 12 57 27 57 11 0 19 7 19 15 0 8 0 18 1 23 0 4 -10 9 -23 12
-22 6 -23 10 -28 140 l-5 135 -37 3 c-20 2 -38 -1 -41 -5z m-7 -248 c0 -16
-45 -21 -54 -6 -8 12 4 21 31 21 14 0 23 -6 23 -15z"/>
<path d="M21137 12103 c-4 -3 -7 -14 -7 -24 0 -11 -9 -19 -22 -21 -28 -4 -37
-45 -37 -173 0 -127 9 -169 36 -173 14 -2 23 -12 25 -25 3 -20 10 -22 66 -25
53 -3 63 0 68 15 3 10 11 29 17 42 8 15 12 79 12 166 0 87 -4 151 -12 166 -6
13 -14 32 -17 42 -4 14 -17 17 -64 17 -32 0 -62 -3 -65 -7z m117 -100 c3 -21
6 -74 6 -118 0 -44 -3 -97 -6 -117 -7 -38 -7 -38 -54 -38 -47 0 -47 0 -54 38
-3 20 -6 73 -6 117 0 44 3 97 6 118 7 37 7 37 54 37 47 0 47 0 54 -37z"/>
<path d="M21467 12104 c-4 -4 -7 -15 -7 -25 0 -11 -9 -19 -22 -21 -28 -4 -37
-45 -37 -173 0 -127 9 -169 36 -173 14 -2 23 -12 25 -25 3 -20 9 -22 68 -22
59 0 65 2 68 22 2 13 11 23 25 25 27 4 36 46 36 173 0 127 -9 169 -36 173 -14
2 -23 12 -25 25 -3 19 -10 22 -63 25 -34 2 -64 0 -68 -4z m117 -101 c3 -21 6
-74 6 -118 0 -44 -3 -97 -6 -117 -7 -38 -7 -38 -54 -38 -47 0 -47 0 -54 38 -3
20 -6 73 -6 117 0 44 3 97 6 118 7 37 7 37 54 37 47 0 47 0 54 -37z"/>
<path d="M22485 12098 c-3 -8 -4 -108 -3 -223 l3 -210 100 -3 c55 -2 124 0
153 3 46 6 52 9 52 30 0 18 6 24 27 27 24 3 29 9 35 43 9 51 9 189 0 240 -6
31 -13 40 -32 45 -15 4 -26 15 -30 30 l-6 25 -147 3 c-114 2 -149 0 -152 -10z
m237 -80 c2 -17 12 -24 33 -28 l30 -5 0 -100 0 -100 -30 -5 c-21 -4 -31 -11
-33 -28 -3 -21 -8 -22 -83 -22 l-79 0 0 155 0 155 79 0 c75 0 80 -1 83 -22z"/>
<path d="M22965 12098 c-3 -7 -4 -108 -3 -223 l3 -210 35 0 35 0 0 220 0 220
-33 3 c-20 2 -34 -2 -37 -10z"/>
<path d="M23238 12083 c-2 -20 -9 -29 -24 -31 -17 -2 -23 -12 -28 -45 -3 -23
-8 -63 -12 -89 -5 -37 -10 -48 -24 -48 -21 0 -25 -11 -35 -85 -4 -27 -14 -58
-22 -67 -8 -9 -13 -25 -11 -35 3 -14 13 -18 48 -18 l45 0 8 53 9 52 107 0 108
0 9 -52 9 -53 49 2 c27 1 53 6 58 11 14 14 -1 40 -25 44 -19 3 -23 11 -27 63
-4 52 -8 60 -27 63 -24 4 -29 13 -38 90 -5 41 -11 52 -25 52 -14 0 -20 12 -26
58 l-9 57 -57 3 c-55 3 -57 2 -60 -25z m62 -128 c0 -20 5 -25 24 -25 20 0 25
-6 29 -37 2 -21 2 -41 0 -45 -2 -5 -29 -8 -59 -8 l-54 0 0 33 c0 17 3 49 6 70
6 31 11 37 30 37 19 0 24 -5 24 -25z"/>
<path d="M21772 11973 c-4 -10 -7 -83 -7 -163 l0 -145 35 0 35 0 3 98 c2 88 4
97 22 97 22 0 40 28 32 49 -3 8 1 12 9 9 11 -4 15 -33 17 -119 2 -63 5 -120 7
-127 3 -9 21 -12 57 -10 l53 3 5 122 c3 67 10 127 16 133 15 15 42 2 46 -23 2
-14 11 -23 25 -25 21 -3 22 -9 25 -105 l3 -102 35 0 35 0 3 85 c3 73 -12 217
-23 228 -8 8 -124 14 -149 8 -17 -4 -26 -13 -26 -26 0 -29 -38 -27 -42 3 -3
19 -9 22 -53 22 -44 0 -50 -2 -55 -25 -7 -30 -33 -33 -39 -5 -6 37 -56 49 -69
18z"/>
<path d="M20900 11715 c-22 -26 -8 -50 30 -50 25 0 36 5 38 18 5 23 -15 47
-38 47 -10 0 -23 -7 -30 -15z"/>
<path d="M22284 11586 c-10 -26 0 -51 22 -54 15 -2 24 -15 34 -52 9 -34 19
-50 30 -50 21 0 40 -20 40 -41 0 -10 9 -19 21 -21 12 -2 25 -10 29 -18 20 -43
28 -54 43 -62 9 -4 25 -12 35 -17 9 -4 18 -18 20 -30 2 -12 11 -21 21 -21 22
0 41 -19 41 -42 0 -11 7 -18 18 -18 23 0 42 -19 42 -42 0 -11 7 -18 18 -18 23
0 42 -19 42 -42 0 -11 7 -18 19 -18 32 0 43 -23 34 -76 -7 -40 -13 -49 -33
-54 -20 -5 -25 -12 -25 -35 0 -25 4 -31 27 -33 19 -2 28 -10 30 -25 3 -19 10
-22 58 -24 30 -2 83 -5 117 -9 54 -5 62 -8 65 -27 3 -25 26 -30 101 -21 42 5
48 9 45 28 -2 13 -11 22 -25 24 -18 3 -23 12 -29 60 -4 31 -14 100 -23 152
-19 109 -17 107 -127 95 -59 -6 -63 -8 -66 -33 -4 -37 -49 -39 -58 -2 -4 18
-14 26 -32 28 -21 2 -28 9 -30 30 -2 21 -9 28 -30 30 -21 3 -27 9 -30 30 -2
21 -9 28 -30 30 -21 3 -27 9 -30 30 -2 19 -10 28 -25 30 -12 2 -27 10 -33 18
-7 8 -23 14 -36 14 -17 0 -23 6 -26 28 -2 21 -9 28 -30 30 -22 3 -28 9 -28 26
0 13 -6 29 -14 36 -8 6 -16 21 -18 33 -2 15 -11 23 -30 25 -21 3 -27 9 -30 30
-2 21 -9 28 -30 30 -21 3 -27 9 -30 30 -3 31 -44 44 -54 18z"/>
<path d="M24583 11353 c-24 -3 -33 -9 -33 -22 0 -23 -42 -31 -161 -31 -64 0
-90 -4 -99 -15 -8 -10 -37 -15 -93 -17 -81 -3 -82 -3 -85 -30 -3 -26 -6 -27
-65 -30 -55 -3 -62 -6 -65 -24 -3 -18 -13 -23 -60 -30 -48 -8 -58 -13 -60 -31
-3 -18 -12 -23 -57 -28 -49 -7 -54 -10 -57 -34 -3 -22 -8 -26 -40 -29 -21 -2
-39 -9 -39 -15 -1 -7 -2 -19 -3 -27 0 -9 -15 -17 -36 -20 -26 -4 -36 -10 -38
-27 -3 -18 -12 -23 -55 -30 -47 -7 -52 -11 -55 -35 -2 -21 -9 -28 -30 -30 -18
-2 -28 -10 -32 -28 -4 -18 -13 -26 -33 -28 -22 -3 -27 -8 -27 -33 0 -26 -3
-29 -30 -29 -17 0 -31 -6 -31 -12 -1 -7 -2 -20 -3 -28 0 -8 -8 -15 -17 -15 -9
0 -27 -5 -40 -12 -13 -6 -32 -14 -41 -17 -9 -2 -18 -17 -20 -33 -2 -22 -9 -29
-30 -31 -23 -3 -28 -8 -28 -32 0 -15 -6 -30 -14 -33 -8 -3 -16 -18 -18 -34 -2
-20 -9 -29 -25 -31 -18 -3 -23 -13 -30 -55 -5 -35 -13 -52 -23 -53 -8 -1 -21
-2 -27 -3 -7 0 -13 -14 -13 -30 0 -25 -4 -30 -27 -33 -26 -3 -28 -7 -33 -58
-5 -51 -7 -55 -31 -58 -24 -3 -27 -8 -34 -57 -5 -45 -10 -54 -28 -57 -17 -2
-24 -13 -31 -45 -7 -31 -15 -43 -30 -45 -18 -3 -21 -11 -24 -65 -3 -59 -4 -62
-30 -65 -27 -3 -27 -4 -30 -90 -3 -85 -4 -88 -26 -88 -27 0 -36 -33 -36 -136
0 -88 -9 -124 -30 -124 -10 0 -21 -7 -24 -16 -3 -9 -6 -188 -6 -399 0 -211 3
-390 6 -399 3 -9 14 -16 24 -16 22 0 30 -37 30 -139 0 -118 8 -151 36 -151 22
0 23 -4 26 -72 3 -71 4 -73 30 -76 26 -3 27 -6 30 -65 3 -55 6 -62 24 -65 18
-3 23 -13 30 -60 8 -48 13 -58 31 -60 18 -3 23 -12 28 -57 7 -49 10 -54 34
-57 24 -3 26 -7 31 -58 5 -51 7 -55 33 -58 15 -2 27 -9 27 -18 0 -8 6 -15 13
-15 6 -1 19 -2 27 -3 9 0 15 -11 15 -26 0 -20 -6 -26 -27 -28 -21 -3 -27 -9
-30 -30 -2 -21 -9 -28 -33 -32 -20 -3 -31 -12 -33 -25 -3 -20 -58 -45 -97 -45
-8 0 -15 -9 -15 -20 0 -21 -2 -21 -147 -24 -22 -1 -29 4 -31 22 -3 18 -10 22
-38 22 -27 0 -34 -4 -34 -20 0 -13 -7 -20 -20 -20 -13 0 -20 7 -20 19 0 10 -7
21 -15 25 -13 5 -493 11 -865 11 -140 0 -145 1 -148 21 -4 30 -47 33 -392 34
-157 0 -387 3 -512 6 -207 6 -228 9 -228 24 0 10 -7 20 -15 24 -8 3 -169 5
-357 6 -189 0 -425 3 -525 6 -163 6 -183 9 -183 24 0 26 -71 30 -504 30 -210
0 -437 5 -506 11 -185 16 -226 17 -575 19 -176 0 -377 3 -447 7 -112 5 -128 8
-128 23 0 25 -68 29 -495 30 -203 0 -373 4 -377 8 -4 4 -8 30 -10 57 -3 46 -5
50 -30 53 -27 3 -28 6 -28 57 0 30 4 56 8 59 5 3 42 6 83 7 88 2 99 5 99 29 0
15 11 20 55 25 l55 7 -2 372 -3 371 -105 1 c-149 2 -190 -4 -190 -26 0 -22
-42 -30 -157 -30 -94 0 -113 -5 -113 -31 0 -10 -6 -20 -12 -20 -7 -1 -60 -4
-118 -8 -101 -6 -104 -7 -110 -31 l-6 -25 -252 -3 -252 -2 0 25 c0 14 -1 26
-2 26 -2 1 -82 4 -178 8 l-174 6 -6 25 c-6 25 -6 25 -160 31 -186 8 -170 5
-170 28 0 15 -9 20 -42 23 -37 4 -177 10 -303 12 -33 1 -40 5 -45 26 l-6 25
-172 5 c-114 4 -176 10 -184 18 -8 8 -50 12 -124 12 -151 0 -204 8 -204 30 0
13 -11 19 -39 24 -51 8 -1213 8 -1291 -1 -50 -5 -60 -9 -60 -24 0 -17 -9 -19
-80 -19 -72 0 -80 2 -80 19 0 17 -10 20 -67 26 -89 8 -95 11 -91 37 3 21 10
23 73 28 l70 5 5 55 5 55 55 0 c50 0 55 -2 60 -25 4 -18 14 -26 32 -28 21 -2
28 -9 30 -30 l3 -27 282 -3 282 -2 3 27 3 28 145 5 145 5 3 28 3 27 154 0
c166 0 185 3 185 30 0 14 13 18 83 23 45 4 139 7 209 7 139 0 158 4 158 30 0
25 35 30 244 31 98 0 185 3 192 6 8 3 14 13 14 23 0 24 34 29 225 31 219 3
255 7 255 28 0 16 14 19 107 24 58 4 139 7 179 7 84 0 104 6 104 30 0 14 13
18 83 23 45 4 139 7 209 7 139 0 158 4 158 30 0 14 14 18 92 24 50 3 152 6
227 6 99 1 143 5 161 15 19 11 64 14 176 15 206 0 274 8 274 30 0 24 35 29
210 31 205 3 240 7 240 29 0 25 37 30 210 30 161 0 180 3 180 30 0 14 13 18
83 23 45 4 146 7 224 7 154 0 173 3 173 30 0 22 70 30 280 31 79 1 150 3 157
6 7 3 13 13 13 23 0 24 34 29 210 31 205 3 240 7 240 29 0 25 37 30 210 30
161 0 180 3 180 30 0 14 13 18 83 23 45 4 146 7 224 7 154 0 173 3 173 30 0
22 69 30 271 30 81 0 154 3 163 6 9 3 16 15 16 25 0 13 7 19 23 19 148 4 420
21 447 29 19 6 105 11 190 11 85 0 161 4 168 9 8 5 12 17 10 27 -3 17 -16 19
-143 22 -188 4 -265 -4 -265 -27 0 -25 -41 -31 -220 -32 -80 0 -181 -5 -225
-10 -44 -5 -161 -13 -260 -18 -99 -5 -183 -10 -187 -10 -5 -1 -8 -9 -8 -20 0
-26 -35 -31 -225 -31 -201 0 -255 -6 -255 -30 0 -23 -37 -30 -165 -30 -56 0
-143 -3 -193 -6 -78 -6 -92 -10 -92 -24 0 -23 -38 -30 -165 -30 -56 0 -143 -3
-193 -6 -78 -6 -92 -10 -92 -24 0 -24 -38 -30 -204 -30 -158 0 -186 -5 -186
-30 0 -14 -13 -18 -82 -23 -46 -4 -133 -7 -194 -7 -151 0 -204 -8 -204 -30 0
-23 -37 -30 -165 -30 -56 0 -143 -3 -193 -6 -78 -6 -92 -10 -92 -24 0 -23 -38
-30 -165 -30 -56 0 -143 -3 -193 -6 -78 -6 -92 -10 -92 -24 0 -24 -38 -30
-189 -30 -188 0 -261 -9 -261 -31 0 -21 -38 -25 -295 -34 -93 -3 -190 -10
-215 -15 -25 -5 -95 -9 -156 -10 -152 0 -204 -8 -204 -30 0 -15 -15 -18 -117
-24 -349 -19 -333 -17 -333 -36 0 -24 -37 -30 -189 -30 -186 0 -261 -9 -261
-30 0 -24 -38 -30 -180 -30 -64 0 -158 -3 -208 -6 -78 -6 -92 -10 -92 -24 0
-22 -44 -30 -171 -30 -53 0 -137 -3 -187 -6 -78 -6 -92 -10 -92 -24 0 -21 -53
-30 -176 -30 l-83 0 -3 88 -3 87 -90 5 c-88 5 -90 6 -90 30 l0 25 230 6 c127
4 245 7 263 8 24 1 32 6 32 20 0 22 40 28 230 31 69 1 168 6 220 11 52 6 147
12 210 15 315 11 360 15 360 34 0 24 43 30 225 30 210 0 285 8 285 30 0 24 44
30 216 30 77 0 182 3 232 6 82 6 91 9 94 28 3 20 9 21 223 27 121 4 235 7 253
8 24 1 32 6 32 20 0 25 35 31 195 31 72 0 173 3 223 6 78 6 92 10 92 24 0 24
38 30 195 30 72 0 173 3 223 6 78 6 92 10 92 24 0 24 38 30 195 30 72 0 173 3
223 6 78 6 92 10 92 24 0 24 38 30 195 30 72 0 173 3 223 6 78 6 92 10 92 24
0 25 38 30 225 30 201 0 255 6 255 30 0 22 69 30 274 30 85 0 190 7 241 15 50
8 142 15 206 15 64 0 157 3 207 6 78 6 92 10 92 24 0 25 38 30 240 30 216 0
270 6 270 30 0 24 44 30 231 30 86 0 197 3 247 6 78 6 92 10 92 24 0 24 38 30
195 30 72 0 173 3 223 6 81 6 92 9 92 25 0 11 1 20 3 21 1 1 112 4 247 7 239
6 245 6 248 27 3 19 12 22 85 27 104 9 460 9 509 1 28 -5 38 -12 40 -28 3 -18
11 -21 60 -24 53 -3 57 -5 60 -30 3 -25 7 -27 58 -32 52 -5 55 -7 60 -35 4
-22 11 -31 28 -33 13 -2 22 -10 22 -22 0 -13 -11 -19 -45 -24 -65 -10 -113 1
-117 28 -3 20 -9 21 -93 21 -89 0 -90 0 -90 -25 0 -21 5 -25 35 -27 120 -9
139 -14 142 -36 3 -20 11 -23 86 -29 46 -4 89 -11 95 -16 7 -5 40 -10 74 -11
62 -2 86 10 64 32 -6 6 -11 21 -11 34 0 18 -7 25 -30 30 -19 3 -30 12 -30 22
0 22 -19 41 -42 41 -11 0 -18 7 -18 18 0 23 -19 42 -42 42 -11 0 -18 7 -18 18
0 24 -19 42 -46 42 -16 0 -24 7 -26 23 -3 24 -3 24 -100 26 -65 1 -67 2 -70
29 l-3 27 -325 3 c-374 3 -430 -1 -430 -28 0 -16 -12 -19 -92 -24 -51 -4 -151
-8 -223 -9 -129 -2 -129 -2 -135 -27 l-6 -25 -164 -3 c-356 -6 -333 -4 -340
-32 l-6 -25 -164 -3 c-356 -6 -333 -4 -340 -32 l-6 -25 -164 -3 c-355 -6 -335
-4 -338 -30 -2 -13 -9 -25 -15 -27 -7 -3 -120 -6 -252 -7 l-239 -3 -6 -25 -6
-25 -244 -3 c-170 -3 -250 -7 -264 -16 -15 -9 -95 -13 -271 -15 -137 -2 -253
-6 -257 -9 -3 -4 -8 -16 -10 -27 -3 -19 -12 -20 -138 -23 -401 -7 -363 -4
-370 -32 l-6 -25 -164 -3 c-356 -6 -333 -4 -340 -32 -5 -23 -11 -25 -61 -26
-320 -4 -435 -7 -446 -11 -7 -3 -13 -13 -13 -23 0 -14 -13 -18 -82 -24 -46 -3
-154 -6 -241 -7 -88 0 -165 -3 -173 -6 -8 -3 -14 -13 -14 -23 0 -15 -13 -18
-92 -24 -51 -3 -160 -6 -242 -7 -82 0 -155 -3 -162 -6 -8 -3 -14 -13 -14 -23
0 -22 -85 -30 -316 -30 -89 0 -169 -3 -178 -6 -9 -3 -16 -14 -16 -24 0 -22
-85 -30 -331 -30 -97 0 -184 -3 -193 -6 -9 -3 -16 -14 -16 -24 0 -15 -14 -18
-107 -23 -58 -4 -166 -7 -239 -7 -146 0 -164 -3 -164 -31 0 -15 -8 -19 -42
-20 -194 -5 -470 -19 -547 -28 -56 -7 -240 -10 -450 -9 l-356 3 -5 40 c-4 34
-9 40 -32 43 -21 3 -27 9 -30 30 -3 24 -8 28 -55 35 -43 7 -52 12 -55 30 -3
21 -10 22 -108 28 -58 4 -110 7 -117 8 -6 0 -13 11 -15 24 l-3 22 -320 0 -320
0 -3 -22 c-3 -19 -12 -23 -60 -28 -31 -3 -64 -7 -72 -8 -8 -1 -16 -12 -18 -24
-3 -18 -13 -23 -55 -30 -43 -7 -52 -12 -57 -33 -4 -18 -14 -26 -32 -28 -21 -2
-28 -9 -30 -30 -2 -20 -9 -28 -28 -30 -14 -2 -29 -8 -35 -13 -5 -5 -1851 -9
-4635 -10 -2544 -1 -4686 -4 -4760 -8 -133 -6 -134 -6 -140 -31 -6 -24 -8 -25
-110 -27 -123 -3 -132 -6 -128 -35 4 -29 27 -32 186 -23 108 6 122 9 122 25 0
12 10 20 31 24 17 3 2031 6 4474 6 2443 0 4457 -3 4474 -6 21 -4 31 -12 31
-25 0 -18 -28 -25 -125 -31 l-40 -3 0 -85 0 -85 30 -3 c118 -10 135 -14 135
-31 0 -13 -10 -21 -31 -25 -41 -8 -664 -8 -1252 1 -427 6 -467 8 -467 23 0 15
-37 17 -427 23 -236 4 -772 7 -1193 7 -421 0 -863 3 -982 7 -195 5 -218 8
-218 23 0 19 -189 23 -1512 37 -607 6 -658 8 -658 23 0 15 -19 18 -148 23
-190 9 -2214 9 -2275 1 -36 -5 -47 -11 -47 -24 0 -19 -5 -20 -122 -36 -42 -6
-48 -9 -48 -31 0 -22 -4 -24 -37 -21 -30 2 -39 8 -41 24 -2 11 4 27 13 34 8 7
15 23 15 36 0 21 5 23 53 26 48 3 52 5 55 31 4 30 -7 33 -81 21 -30 -5 -37
-11 -37 -29 0 -14 -7 -25 -20 -28 -12 -3 -20 -14 -20 -26 0 -15 -6 -21 -21
-21 -11 0 -29 -4 -39 -10 -10 -5 -26 -7 -35 -4 -14 6 -15 94 -15 948 l1 941
-28 0 -28 0 0 -4540 0 -4540 25 0 25 0 5 3527 c4 2662 8 3530 17 3539 15 15
33 3 33 -22 0 -15 7 -19 34 -19 28 0 35 4 38 23 2 18 11 23 48 27 40 4 45 8
48 33 3 26 5 27 70 28 96 2 95 2 102 29 l6 25 329 3 c182 2 516 0 743 -4 381
-6 412 -8 412 -24 0 -15 28 -17 358 -23 196 -4 760 -8 1252 -9 492 0 1013 -3
1157 -6 242 -4 263 -5 263 -21 0 -16 15 -19 133 -24 113 -6 1222 -12 2142 -12
277 0 280 0 283 -21 3 -20 11 -21 150 -27 81 -4 533 -7 1006 -7 472 0 862 -2
867 -5 4 -3 37 -1 73 5 80 13 143 -2 148 -35 3 -19 10 -20 228 -20 l225 0 0
25 0 25 -222 3 -223 2 0 30 c0 26 -3 30 -29 30 -25 0 -30 4 -33 28 -2 21 -9
28 -30 30 -21 3 -27 9 -30 30 -3 25 -7 27 -58 32 -51 5 -55 7 -55 30 0 23 4
25 55 30 48 4 55 8 60 30 4 18 14 26 32 28 21 2 28 9 30 30 l3 27 220 0 220 0
0 -25 0 -25 -177 -3 -178 -2 0 -120 0 -120 208 -2 207 -3 3 -27 c3 -23 8 -28
32 -28 24 0 29 5 32 28 3 26 5 27 58 27 l55 0 5 -55 5 -55 70 -5 c67 -5 70 -6
70 -30 0 -23 -4 -25 -57 -28 -53 -3 -57 -5 -60 -30 l-3 -27 -125 -3 c-69 -1
-134 -6 -145 -11 -54 -23 -78 -31 -95 -31 -14 0 -20 -7 -20 -24 0 -19 -6 -25
-27 -28 -22 -2 -29 -9 -31 -30 -2 -21 -9 -28 -30 -30 -18 -2 -28 -10 -32 -28
-4 -18 -14 -26 -32 -28 -21 -2 -28 -9 -30 -30 -2 -21 -9 -28 -30 -30 -27 -3
-32 -11 -29 -39 1 -7 -8 -17 -19 -23 -11 -6 -20 -20 -20 -30 0 -13 -7 -20 -18
-20 -23 0 -42 -19 -42 -41 0 -13 -12 -19 -50 -24 -43 -6 -50 -10 -50 -29 0
-27 -18 -46 -42 -46 -11 0 -18 -7 -18 -18 0 -25 -19 -42 -47 -42 -13 0 -23 -6
-22 -12 4 -30 -3 -38 -30 -38 -17 0 -32 -4 -35 -9 -9 -14 -86 -22 -231 -22
-150 0 -165 -3 -165 -29 0 -25 -37 -30 -225 -30 -90 0 -170 -3 -179 -6 -9 -3
-16 -14 -16 -24 0 -22 -58 -30 -232 -30 -139 0 -158 -4 -158 -30 0 -16 -13
-19 -112 -24 -62 -3 -156 -8 -208 -10 -52 -3 -101 -6 -107 -6 -7 0 -13 -11
-13 -25 l0 -25 -162 -1 c-90 -1 -167 -2 -173 -4 -5 -1 -22 -3 -37 -3 -20 -2
-28 -7 -28 -21 0 -24 -40 -31 -202 -31 -140 0 -158 -4 -158 -31 0 -15 -8 -19
-37 -20 -329 -12 -337 -12 -343 -39 -6 -24 -10 -25 -90 -30 -83 -5 -85 -6 -88
-31 l-3 -26 -110 -1 c-60 -1 -114 -4 -119 -7 -6 -3 -10 -17 -10 -31 0 -22 -4
-24 -43 -24 -24 0 -48 -5 -54 -11 -5 -5 -48 -13 -94 -17 -76 -6 -84 -9 -87
-29 -3 -22 -15 -25 -137 -35 -25 -3 -31 -8 -33 -30 -3 -27 -5 -28 -63 -28 -56
0 -59 -1 -59 -25 0 -14 -8 -29 -20 -35 -11 -6 -20 -19 -20 -29 0 -15 -11 -20
-57 -27 -47 -7 -59 -13 -61 -29 -3 -20 -58 -45 -97 -45 -9 0 -15 -9 -15 -24 0
-19 -6 -25 -27 -28 -22 -2 -29 -9 -31 -30 -2 -21 -9 -28 -30 -30 -18 -2 -28
-10 -32 -28 -4 -18 -14 -26 -32 -28 -21 -2 -28 -9 -30 -30 -2 -21 -9 -28 -33
-32 -22 -4 -31 -11 -33 -28 -2 -13 -10 -22 -21 -22 -10 0 -24 -6 -31 -14 -6
-8 -23 -16 -38 -18 -21 -2 -28 -10 -32 -33 -4 -23 -12 -32 -37 -40 -20 -5 -33
-16 -33 -25 0 -23 -20 -40 -47 -40 -18 0 -23 -6 -23 -24 0 -19 -6 -25 -27 -28
-22 -2 -29 -9 -31 -30 -2 -21 -9 -28 -30 -30 -18 -2 -28 -10 -32 -28 -4 -18
-14 -26 -32 -28 -21 -2 -28 -9 -30 -30 -2 -21 -9 -28 -30 -30 -21 -3 -27 -9
-30 -30 -2 -21 -9 -28 -33 -32 -22 -4 -31 -11 -33 -28 -2 -13 -10 -22 -21 -22
-22 0 -41 -19 -41 -42 0 -11 -7 -18 -18 -18 -24 0 -64 -29 -56 -41 8 -14 -17
-41 -32 -35 -8 3 -20 -1 -27 -9 -8 -7 -25 -15 -38 -17 -18 -2 -25 -10 -27 -30
-2 -21 -9 -28 -30 -30 -18 -2 -28 -10 -32 -28 -4 -18 -14 -26 -35 -30 -20 -3
-31 -12 -33 -25 -3 -20 -58 -45 -97 -45 -9 0 -15 -6 -14 -12 4 -30 -3 -37 -33
-40 -25 -2 -34 -8 -36 -25 -3 -18 -12 -23 -50 -28 -66 -9 -72 -12 -72 -33 0
-14 -11 -21 -42 -28 -33 -7 -44 -14 -46 -31 -3 -18 -12 -23 -50 -28 -66 -9
-72 -12 -72 -34 0 -16 -10 -21 -52 -28 -48 -7 -53 -11 -56 -36 -3 -21 -9 -27
-28 -27 -13 0 -34 -5 -47 -12 -12 -6 -29 -14 -37 -18 -8 -4 -16 -17 -18 -29
-2 -12 -11 -21 -21 -21 -22 0 -41 -19 -41 -41 0 -11 -9 -19 -22 -21 -16 -2
-24 -12 -28 -33 -4 -21 -12 -31 -30 -35 -16 -4 -26 -14 -28 -29 -2 -12 -10
-25 -18 -28 -8 -3 -14 -18 -14 -34 0 -27 -8 -34 -37 -30 -7 1 -14 -21 -19 -58
-6 -55 -9 -60 -33 -63 l-26 -3 -3 -972 -2 -973 -463 -2 -462 -3 0 -25 0 -25
463 -3 462 -2 -2 -598 -3 -597 -1315 0 -1315 0 -3 55 c-2 30 -7 59 -11 63 -12
12 -172 -13 -170 -27 3 -28 -3 -35 -38 -38 -29 -2 -39 -8 -42 -23 -4 -24 -19
-35 -48 -35 -14 0 -23 -6 -23 -15 0 -9 9 -15 23 -15 26 0 49 -13 46 -26 -4
-25 3 -34 29 -34 63 0 102 -12 102 -31 0 -22 31 -32 86 -27 l39 3 5 55 5 55
1315 0 1315 0 5 -550 5 -550 25 0 25 0 5 550 5 550 910 0 910 0 3 -308 c2
-278 1 -308 -14 -314 -9 -3 -25 -1 -35 5 -10 7 -43 15 -74 18 -52 6 -59 12
-56 40 1 13 -153 39 -169 29 -6 -3 -10 -26 -10 -51 l0 -44 -540 0 -540 0 0 44
c0 25 -4 48 -10 51 -16 10 -170 -16 -169 -29 3 -28 -4 -34 -56 -40 -31 -3 -65
-12 -75 -19 -23 -14 -27 -62 -6 -70 8 -3 16 -16 18 -29 2 -17 10 -24 33 -26
120 -10 135 -13 135 -33 0 -22 30 -32 86 -27 l39 3 5 55 5 55 535 0 535 0 5
-55 5 -55 39 -3 c56 -5 86 5 86 27 0 20 14 23 135 33 22 2 31 9 35 28 4 18 12
25 30 25 l25 0 3 -207 c2 -175 5 -208 17 -208 13 0 15 74 17 553 l3 552 6628
3 c5877 2 6627 4 6627 17 0 13 -285 15 -2472 17 l-2473 3 -5 580 -5 580 -25 0
-25 0 -5 -580 -5 -580 -4120 0 -4120 0 0 595 0 595 10795 0 10795 0 5 -925 5
-925 27 -3 28 -3 2 928 3 928 595 5 595 5 0 25 0 25 -590 3 c-324 1 -593 6
-597 10 -4 4 -8 1333 -8 2952 -1 1620 -4 2961 -8 2980 -6 26 -13 35 -27 35
-19 0 -20 10 -26 128 -3 79 -10 131 -17 136 -6 4 -12 42 -14 91 -3 84 -3 85
-30 88 -26 3 -27 6 -30 65 -3 54 -6 62 -24 65 -15 2 -23 14 -30 45 -7 32 -14
43 -30 45 -22 3 -34 35 -34 88 0 17 -6 23 -27 26 -26 3 -28 7 -33 58 -5 51 -7
55 -32 58 -24 3 -28 8 -28 33 0 16 -6 30 -12 30 -7 1 -20 2 -28 3 -10 1 -18
19 -24 59 -7 50 -11 57 -31 57 -18 0 -24 6 -27 28 -2 21 -9 28 -30 30 -23 3
-28 8 -28 32 0 24 -5 29 -27 32 -21 2 -29 9 -31 26 -5 30 -34 59 -64 64 -17 2
-24 10 -26 31 -3 23 -8 27 -33 27 -26 0 -29 3 -29 30 0 27 -3 30 -29 30 -25 0
-30 4 -33 28 -2 21 -9 28 -30 30 -22 3 -28 9 -28 27 0 20 -7 24 -57 31 -40 6
-58 14 -59 24 -1 8 -2 21 -3 28 0 6 -14 12 -30 12 -25 0 -30 4 -33 28 -3 25
-7 27 -58 32 -51 5 -55 7 -58 32 -3 23 -8 27 -40 30 -29 2 -37 8 -42 28 -5 22
-14 26 -62 34 -47 7 -57 12 -60 30 -3 18 -11 22 -63 26 -53 4 -60 8 -65 30 -6
24 -10 25 -85 28 -43 2 -85 8 -91 13 -7 6 -68 15 -136 19 -68 5 -124 10 -125
10 -2 0 -3 8 -3 19 0 14 -10 20 -46 25 -50 6 -696 6 -751 -1z m727 -68 c47 -8
106 -15 131 -15 25 0 67 -3 92 -6 37 -5 47 -11 49 -28 3 -19 11 -21 108 -27
58 -4 108 -7 113 -8 4 0 7 -10 7 -21 0 -23 6 -26 72 -35 38 -5 47 -10 50 -28
3 -20 10 -22 65 -25 59 -3 62 -4 65 -30 3 -24 8 -27 45 -30 37 -3 42 -6 45
-30 3 -24 8 -28 55 -35 43 -7 52 -12 55 -30 2 -17 11 -23 36 -25 l32 -3 0 -60
c0 -59 0 -59 -30 -59 -27 0 -30 -3 -30 -30 0 -27 -3 -30 -30 -30 -27 0 -30 -3
-30 -30 0 -26 -3 -30 -29 -30 -16 0 -31 -6 -35 -15 -3 -8 -17 -15 -31 -15 -20
0 -25 -5 -25 -25 0 -13 -6 -28 -14 -32 -8 -4 -16 -19 -18 -33 -2 -19 -10 -26
-30 -28 -21 -3 -27 -9 -30 -30 -2 -21 -9 -28 -30 -30 -21 -3 -27 -9 -30 -30
-2 -21 -9 -28 -30 -30 -21 -3 -27 -9 -30 -30 -2 -21 -9 -28 -30 -30 -21 -3
-27 -9 -30 -30 -2 -21 -9 -28 -30 -30 -21 -3 -27 -9 -30 -30 -2 -21 -9 -28
-30 -30 -21 -3 -27 -9 -30 -30 -2 -21 -9 -28 -30 -30 -21 -3 -27 -9 -30 -30
-2 -21 -9 -28 -33 -32 -22 -4 -31 -11 -33 -28 -2 -12 -10 -22 -20 -22 -22 0
-72 -50 -72 -72 0 -11 -7 -18 -18 -18 -23 0 -42 -19 -42 -42 0 -11 -7 -18 -18
-18 -23 0 -42 -19 -42 -42 0 -11 -7 -18 -18 -18 -23 0 -42 -19 -42 -41 0 -11
-9 -19 -22 -21 -20 -3 -24 -12 -32 -60 -7 -47 -12 -57 -30 -60 -18 -3 -21 -10
-24 -65 -3 -58 -5 -63 -26 -63 -20 0 -24 -7 -34 -64 -17 -88 -17 -88 21 -84
30 3 32 6 35 45 3 37 6 42 30 45 24 3 27 8 30 43 6 101 12 124 35 127 19 3 23
12 31 61 6 43 12 57 25 57 22 0 41 19 41 42 0 11 7 18 18 18 23 0 42 19 42 41
0 10 11 19 30 23 23 4 30 11 30 30 0 13 7 29 15 36 8 7 15 21 15 31 0 12 7 19
19 19 10 0 24 7 31 15 7 8 23 15 36 15 19 0 26 7 31 30 3 19 12 30 22 30 22 0
41 19 41 42 0 11 7 18 18 18 23 0 42 19 42 42 0 11 7 18 18 18 23 0 42 19 42
42 0 11 7 18 18 18 23 0 42 19 42 42 0 11 7 18 18 18 23 0 42 19 42 42 0 11 7
18 18 18 23 0 42 19 42 42 0 11 7 18 18 18 23 0 42 19 42 41 0 9 7 22 15 29 8
7 15 21 15 31 0 12 7 19 18 19 23 0 42 19 42 42 0 11 7 18 19 18 10 0 24 7 31
15 7 8 20 15 29 15 22 0 41 19 41 42 0 11 7 18 18 18 22 0 42 19 42 40 0 44
156 40 162 -4 2 -14 13 -22 33 -26 27 -5 30 -9 33 -47 3 -41 2 -42 -30 -45
-25 -2 -34 -8 -36 -25 -2 -14 -10 -23 -21 -23 -22 0 -41 -19 -41 -42 0 -11 -7
-18 -18 -18 -23 0 -42 -19 -42 -42 0 -11 -7 -18 -18 -18 -23 0 -42 -19 -42
-42 0 -11 -7 -18 -18 -18 -23 0 -42 -19 -42 -41 0 -11 -9 -19 -22 -21 -17 -2
-24 -11 -28 -33 -4 -24 -11 -31 -32 -33 -21 -3 -27 -9 -30 -30 -2 -21 -9 -28
-30 -30 -22 -3 -28 -9 -28 -27 0 -13 -6 -28 -14 -32 -8 -4 -16 -19 -18 -33 -2
-19 -10 -26 -30 -28 -21 -3 -27 -9 -30 -30 -2 -20 -9 -28 -28 -30 -14 -2 -29
-10 -33 -18 -4 -8 -19 -14 -32 -14 -18 0 -24 -6 -27 -27 -2 -22 -9 -29 -30
-31 -21 -3 -27 -9 -30 -30 -2 -21 -9 -28 -30 -30 -21 -3 -27 -9 -30 -30 -2
-21 -9 -28 -30 -30 -21 -3 -27 -9 -30 -30 -2 -21 -9 -28 -30 -30 -21 -3 -27
-9 -30 -30 -2 -21 -9 -28 -30 -30 -24 -3 -28 -8 -28 -33 0 -24 4 -29 24 -29
49 0 86 12 86 29 0 22 19 41 42 41 11 0 18 7 18 18 0 23 19 42 42 42 11 0 18
7 18 18 0 22 19 42 40 42 11 0 21 16 30 50 9 34 19 50 30 50 21 0 40 20 40 42
0 11 7 18 19 18 10 0 24 7 31 15 7 8 23 15 36 15 19 0 26 7 30 30 4 16 13 35
20 41 8 6 14 20 14 30 0 12 7 19 18 19 23 0 42 19 42 41 0 12 9 19 28 21 21 2
28 9 30 31 2 18 9 27 21 27 22 0 41 19 41 42 0 11 7 18 18 18 23 0 42 19 42
42 0 11 7 18 18 18 23 0 42 19 42 42 0 11 7 18 18 18 23 0 42 19 42 42 0 11 7
18 18 18 23 0 42 19 42 42 0 11 7 18 19 18 22 0 37 17 43 45 3 17 11 20 48 19
36 -1 46 -5 48 -20 2 -10 12 -26 22 -34 11 -9 19 -31 21 -55 3 -57 1 -65 -15
-65 -9 0 -16 -12 -18 -27 -2 -22 -9 -29 -30 -31 -21 -3 -27 -9 -30 -30 -2 -21
-9 -28 -30 -30 -21 -3 -27 -9 -30 -30 -2 -21 -9 -28 -30 -30 -21 -3 -27 -9
-30 -30 -2 -21 -9 -28 -30 -30 -21 -3 -27 -9 -30 -30 -2 -21 -9 -28 -30 -30
-21 -3 -27 -9 -30 -30 -2 -21 -9 -28 -30 -30 -21 -3 -27 -9 -30 -30 -2 -20 -9
-28 -28 -30 -14 -2 -29 -10 -33 -18 -4 -8 -19 -14 -32 -14 -18 0 -24 -6 -27
-27 -2 -22 -9 -29 -30 -31 -21 -2 -28 -9 -30 -30 -2 -18 -10 -28 -28 -32 -14
-3 -26 -14 -28 -25 -2 -11 -10 -27 -17 -35 -7 -8 -15 -24 -17 -35 -2 -11 -14
-22 -28 -25 -18 -4 -26 -14 -28 -32 -2 -21 -9 -28 -30 -30 -21 -2 -28 -9 -30
-30 -2 -21 -9 -28 -30 -30 -18 -2 -28 -10 -32 -28 -4 -18 -14 -26 -32 -28 -21
-2 -28 -9 -30 -30 -2 -21 -9 -28 -30 -30 -21 -3 -27 -9 -30 -30 -2 -20 -9 -28
-28 -30 -14 -2 -29 -10 -33 -18 -5 -9 -25 -14 -56 -14 -48 0 -48 0 -55 -37 -3
-21 -6 -56 -6 -78 0 -75 -11 -115 -31 -115 -20 0 -43 -33 -31 -45 4 -3 -2 -13
-12 -20 -10 -8 -19 -24 -20 -37 -1 -17 -8 -24 -26 -26 -35 -5 -49 -19 -43 -43
12 -45 83 -39 83 7 0 12 7 27 15 34 8 7 15 21 15 31 0 12 7 19 20 19 13 0 20
-7 20 -19 0 -15 10 -20 53 -25 133 -17 136 -17 139 -39 2 -18 11 -22 48 -25
61 -3 68 -7 72 -34 2 -19 11 -24 56 -31 l52 -9 0 -47 0 -47 -47 -12 c-27 -8
-56 -18 -65 -23 -10 -5 -37 -9 -60 -9 -24 0 -60 -3 -80 -6 -32 -6 -38 -11 -38
-30 0 -27 -9 -28 -170 -25 -90 2 -96 4 -102 36 -3 18 -13 21 -86 25 -78 5
-112 21 -58 28 18 2 26 10 28 30 2 18 10 28 28 32 23 5 26 12 32 74 3 37 9 70
12 73 3 3 -1 15 -9 27 -8 11 -15 28 -15 38 0 11 -7 18 -18 18 -23 0 -42 19
-42 42 0 11 -7 18 -18 18 -25 0 -42 19 -42 47 0 18 -6 23 -25 23 -20 0 -25 5
-25 25 0 29 -7 33 -65 38 l-40 4 -5 54 -5 54 -90 5 -90 5 -10 40 c-5 22 -12
42 -16 45 -4 3 -9 16 -10 30 -2 14 -11 26 -19 26 -8 1 -20 2 -27 3 -6 0 -13
13 -15 29 -2 21 -9 28 -30 30 -21 3 -27 9 -30 30 l-3 27 -115 5 -115 5 -5 30
c-4 21 -11 31 -28 33 -13 2 -22 10 -22 21 0 22 -19 41 -42 41 -11 0 -18 7 -18
18 0 23 -19 42 -42 42 -11 0 -18 7 -18 19 0 10 -6 24 -14 31 -8 6 -16 21 -18
32 -2 12 -10 24 -18 28 -35 17 -66 29 -85 32 -13 2 -21 12 -23 30 -3 21 -9 27
-30 30 -21 2 -28 9 -30 30 -3 21 -9 27 -30 30 -21 2 -28 9 -30 30 -3 21 -9 27
-30 30 -21 2 -28 9 -30 30 -3 21 -9 27 -30 30 -21 2 -28 9 -30 30 -3 21 -9 27
-30 30 -21 2 -28 9 -30 30 -3 21 -9 27 -30 30 -21 2 -28 9 -30 30 -3 21 -9 27
-30 30 -21 2 -28 9 -30 30 -3 21 -9 27 -30 30 -21 2 -28 9 -30 31 -2 15 -9 27
-18 27 -9 0 -14 11 -14 30 0 27 -3 30 -30 30 -19 0 -30 5 -30 14 0 9 -12 16
-27 18 -22 2 -29 9 -31 31 -3 21 -9 27 -27 27 -32 0 -37 12 -30 64 l7 45 51 8
c43 7 52 12 57 33 4 18 14 26 35 30 21 4 31 12 35 30 4 19 14 26 40 30 29 4
36 10 38 32 3 25 7 27 60 30 51 3 57 5 62 28 5 22 12 26 65 30 52 4 60 8 63
27 3 18 12 23 50 28 66 9 72 12 72 34 0 21 30 29 140 34 48 2 55 5 58 23 3 24
46 34 161 35 36 0 98 6 136 13 104 20 584 21 695 1z m-1900 -585 c0 -11 6 -21
13 -22 15 -1 23 -3 70 -13 20 -4 40 -11 43 -16 3 -5 18 -9 35 -9 25 0 29 -4
29 -29 0 -25 4 -30 28 -33 20 -2 28 -9 30 -28 2 -13 11 -30 20 -36 10 -7 14
-16 10 -19 -12 -13 12 -45 32 -45 13 0 20 -7 20 -18 0 -23 19 -42 42 -42 11 0
18 -7 18 -18 0 -23 19 -42 42 -42 11 0 18 -7 18 -18 0 -23 19 -42 42 -42 11 0
18 -7 18 -18 0 -23 19 -42 42 -42 11 0 18 -7 18 -18 0 -23 19 -42 42 -42 11 0
18 -7 18 -18 0 -23 19 -42 42 -42 11 0 18 -7 18 -18 0 -23 19 -42 41 -42 9 0
22 -7 29 -15 7 -8 21 -15 31 -15 12 0 19 -7 19 -18 0 -23 19 -42 42 -42 11 0
18 -7 18 -19 0 -10 7 -24 15 -31 8 -7 15 -23 15 -36 0 -19 7 -26 30 -30 19 -4
30 -13 30 -23 0 -22 19 -41 40 -41 11 0 21 -16 30 -49 14 -54 28 -61 114 -61
75 0 116 -11 116 -31 0 -13 9 -19 32 -21 28 -3 34 -8 38 -33 4 -24 11 -31 32
-33 21 -3 27 -9 30 -30 2 -21 9 -28 31 -30 29 -4 30 -5 21 -51 -4 -20 -12 -31
-23 -31 -22 0 -41 -19 -41 -42 0 -11 -7 -18 -18 -18 -23 0 -42 -19 -42 -42 0
-11 -7 -18 -18 -18 -23 0 -42 -19 -42 -41 0 -12 -12 -19 -45 -23 -65 -10 -113
1 -117 28 -2 16 -11 22 -38 23 -120 9 -139 14 -142 36 -2 18 -11 23 -48 27
-37 4 -45 9 -50 30 -4 18 -14 26 -32 28 -21 2 -28 9 -30 30 -2 21 -9 28 -30
30 -16 2 -28 9 -28 18 0 9 -11 14 -29 14 -25 0 -30 4 -33 28 -2 21 -9 28 -30
30 -21 3 -27 9 -30 30 -2 21 -9 28 -30 30 -21 3 -27 9 -30 30 -2 21 -9 28 -30
30 -21 3 -27 9 -30 30 -2 21 -9 28 -30 30 -21 3 -27 9 -30 30 -2 21 -9 28 -30
30 -21 3 -27 9 -30 30 -2 21 -9 28 -30 30 -24 3 -28 8 -28 33 0 18 -5 29 -14
29 -9 0 -16 12 -18 28 -2 21 -9 28 -30 30 -21 3 -27 9 -30 30 -2 20 -9 28 -28
30 -14 2 -29 10 -33 18 -4 8 -19 14 -32 14 -18 0 -24 6 -27 28 -2 21 -9 28
-30 30 -21 3 -27 9 -30 30 -2 21 -9 28 -30 30 -21 3 -27 9 -30 30 -2 21 -9 28
-30 30 -21 3 -27 9 -30 30 -2 21 -9 28 -30 30 -21 3 -27 9 -30 30 -2 21 -9 28
-30 30 -21 3 -27 9 -30 30 -2 21 -9 28 -30 30 -30 4 -32 11 -22 74 5 28 12 38
28 40 14 2 22 12 26 33 4 24 11 31 35 35 21 4 31 12 33 28 4 27 42 31 42 4 0
-23 19 -42 42 -42 11 0 18 -7 18 -18 0 -23 19 -42 42 -42 11 0 18 -7 18 -18 0
-23 19 -42 42 -42 11 0 18 -7 18 -18 0 -23 19 -42 42 -42 11 0 18 -7 18 -18 0
-23 19 -42 42 -42 11 0 18 -7 18 -18 0 -23 19 -42 42 -42 11 0 18 -7 18 -19 0
-10 7 -24 15 -31 8 -7 15 -20 15 -29 0 -22 19 -41 42 -41 11 0 18 -7 18 -18 0
-23 19 -42 42 -42 11 0 18 -7 18 -18 0 -23 19 -42 41 -42 9 0 22 -7 29 -15 7
-8 21 -15 31 -15 12 0 19 -7 19 -18 0 -22 19 -42 40 -42 11 0 21 -16 30 -50 9
-34 19 -50 30 -50 21 0 40 -20 40 -42 0 -11 7 -18 18 -18 23 0 42 -19 42 -42
0 -11 7 -18 18 -18 22 0 42 -19 42 -40 0 -9 13 -20 33 -25 22 -7 33 -17 35
-33 2 -12 8 -20 13 -16 5 3 6 10 3 16 -4 6 -2 13 4 17 5 3 12 17 13 31 3 18
-1 25 -16 28 -29 6 -45 22 -45 43 0 12 -7 19 -18 19 -23 0 -42 19 -42 42 0 11
-7 18 -18 18 -23 0 -42 19 -42 42 0 11 -7 18 -18 18 -23 0 -42 19 -42 42 0 12
-8 18 -24 18 -21 0 -25 6 -28 33 -2 26 -8 33 -28 35 -14 2 -29 10 -33 18 -4 8
-19 14 -32 14 -18 0 -24 6 -27 28 -2 21 -9 28 -30 30 -21 3 -27 9 -30 30 -2
21 -9 28 -30 30 -21 3 -27 9 -30 30 -2 21 -9 28 -30 30 -22 3 -28 9 -28 27 0
13 -6 28 -14 32 -8 4 -16 19 -18 33 -2 19 -10 26 -30 28 -21 3 -27 9 -30 30
-2 21 -9 28 -30 30 -21 3 -27 9 -30 30 -2 21 -9 28 -30 30 -21 3 -27 9 -30 30
-2 21 -9 28 -30 30 -21 2 -28 9 -30 30 -2 18 -10 28 -28 32 -18 4 -26 14 -28
32 -2 20 -10 28 -28 30 -35 4 -34 22 2 28 20 4 30 12 32 28 4 29 42 31 42 2z
m3358 -268 c2 -12 9 -23 15 -24 7 0 17 -2 22 -3 6 -2 15 -3 22 -4 6 0 13 -13
15 -28 2 -22 9 -29 30 -31 22 -3 27 -9 30 -35 2 -24 8 -33 24 -35 22 -3 34
-35 34 -88 0 -17 6 -23 28 -26 25 -3 27 -7 32 -58 4 -48 8 -55 30 -60 20 -5
26 -13 30 -45 4 -32 10 -40 30 -45 22 -5 26 -12 30 -65 4 -52 8 -60 27 -63 23
-3 30 -36 36 -167 2 -54 4 -60 27 -65 24 -6 25 -9 30 -105 3 -55 9 -106 14
-114 5 -8 11 -156 13 -329 2 -249 0 -333 -12 -401 -8 -47 -15 -136 -15 -198
l0 -112 -27 -3 c-26 -3 -28 -7 -30 -48 -7 -122 -13 -149 -36 -152 -19 -3 -23
-11 -27 -63 -4 -53 -8 -60 -30 -65 -22 -5 -26 -12 -30 -60 -4 -48 -8 -55 -30
-60 -22 -5 -26 -12 -30 -60 -5 -51 -7 -55 -32 -58 -22 -3 -28 -9 -28 -26 0
-53 -12 -86 -32 -86 -11 0 -22 -8 -25 -19 -3 -14 -15 -21 -37 -23 -23 -2 -32
-8 -34 -25 -6 -38 -37 -28 -48 14 -7 28 -15 39 -34 43 -14 3 -26 14 -28 25 -2
11 -10 25 -17 30 -7 6 -15 22 -17 35 -2 19 -10 26 -30 28 -21 3 -27 9 -30 30
-2 21 -9 28 -30 30 -21 3 -27 9 -30 30 -2 21 -9 28 -30 30 -21 3 -27 9 -30 30
-2 21 -9 28 -30 30 -21 3 -27 9 -30 30 -2 21 -9 28 -30 30 -21 3 -27 9 -30 30
-2 21 -9 28 -30 30 -21 3 -27 9 -30 30 -2 21 -9 28 -30 30 -22 3 -28 9 -28 28
0 19 -5 24 -24 24 -13 0 -29 7 -36 15 -7 8 -20 15 -29 15 -22 0 -41 19 -41 42
0 11 -7 18 -18 18 -23 0 -42 19 -42 41 0 9 -7 22 -15 29 -8 7 -15 23 -15 36 0
19 -5 24 -24 24 -46 0 -44 57 2 62 21 2 28 9 30 31 2 15 7 27 12 27 4 0 11 15
14 33 13 65 14 72 15 80 1 4 12 7 26 7 21 0 25 5 25 29 0 25 4 30 28 33 24 3
28 8 36 56 7 40 13 52 27 52 10 0 23 9 29 20 6 11 16 20 23 19 29 -4 37 3 37
30 0 25 4 30 27 33 25 3 29 8 36 55 7 43 12 52 30 55 17 2 23 11 25 35 3 26 8
32 30 35 21 2 28 9 30 30 3 21 9 27 30 30 24 3 28 8 35 55 7 43 12 52 30 55
18 2 22 10 22 38 0 28 -4 36 -22 38 -13 2 -23 11 -25 25 -2 15 -12 23 -33 27
-21 4 -31 12 -35 30 -4 17 -14 26 -30 29 -14 1 -27 7 -30 12 -4 5 -44 12 -90
16 -76 7 -85 10 -88 29 -3 19 -13 23 -75 32 -40 5 -110 8 -157 5 -68 -4 -88
-2 -98 10 -18 21 -4 47 24 47 18 0 24 5 24 23 0 28 17 47 42 47 11 0 18 7 18
19 0 10 7 24 15 31 8 7 15 20 15 29 0 22 19 41 42 41 11 0 18 7 18 18 0 22 19
42 40 42 11 0 21 16 30 50 9 34 19 50 30 50 21 0 40 20 40 42 0 11 7 18 19 18
10 0 24 7 31 15 7 8 20 15 29 15 22 0 41 19 41 42 0 11 7 18 18 18 23 0 42 19
42 42 0 11 7 18 18 18 23 0 42 19 42 42 0 11 7 18 18 18 23 0 42 19 42 42 0
11 7 18 18 18 23 0 42 19 42 41 0 10 9 19 21 21 21 3 30 13 43 48 3 8 10 22
15 30 5 8 12 23 15 33 8 24 30 17 34 -11z m-3618 -142 c21 0 40 -20 40 -42 0
-11 7 -18 18 -18 23 0 42 -19 42 -42 0 -11 7 -18 18 -18 22 0 42 -19 42 -40 0
-11 16 -21 50 -30 34 -9 50 -19 50 -30 0 -21 19 -40 41 -40 9 0 22 -7 29 -15
7 -8 21 -15 31 -15 12 0 19 -7 19 -18 0 -23 19 -42 42 -42 11 0 18 -7 18 -18
0 -23 19 -42 42 -42 11 0 18 -7 18 -19 0 -10 7 -24 15 -31 8 -7 15 -23 15 -36
0 -19 7 -26 30 -30 19 -4 30 -13 30 -23 0 -22 19 -41 42 -41 11 0 18 -7 18
-18 0 -23 19 -42 42 -42 11 0 18 -7 18 -18 0 -23 19 -42 42 -42 11 0 18 -7 18
-18 0 -23 19 -42 41 -42 10 0 19 -11 23 -30 4 -23 11 -30 30 -30 13 0 29 -7
36 -15 7 -8 20 -15 29 -15 15 0 41 -59 41 -95 0 -9 9 -15 24 -15 19 0 25 -6
28 -27 2 -22 9 -29 30 -31 30 -4 45 -30 26 -48 -7 -7 -35 -14 -63 -16 -43 -3
-50 -6 -55 -28 -5 -20 -13 -25 -40 -27 -98 -8 -140 -15 -139 -26 4 -29 -3 -37
-31 -37 -27 0 -30 -3 -30 -29 0 -25 -4 -30 -27 -33 l-28 -3 0 -90 0 -90 28 -3
c26 -3 27 -2 27 50 0 29 3 69 6 90 l6 36 84 12 c52 7 84 17 83 24 -3 28 5 34
61 40 55 6 60 9 60 31 0 22 4 24 58 27 54 3 57 4 60 31 3 26 5 27 65 27 99 0
135 -9 139 -34 2 -16 13 -22 52 -29 27 -4 70 -7 95 -5 42 3 46 6 49 30 3 21 9
27 30 30 21 2 28 9 30 30 3 21 9 27 30 30 21 2 28 9 30 31 2 18 9 27 21 27 21
0 37 16 43 45 8 37 19 -89 16 -180 l-3 -90 -160 0 -160 0 -8 -56 -9 -56 -56
-9 c-48 -8 -57 -13 -60 -31 -2 -14 -10 -23 -21 -23 -22 0 -41 -19 -41 -42 0
-11 -7 -18 -18 -18 -24 0 -59 -39 -64 -70 -2 -16 -11 -26 -28 -30 -32 -8 -41
-50 -33 -157 6 -85 5 -89 -34 -84 -7 1 -13 -9 -13 -22 0 -28 -17 -47 -42 -47
-11 0 -18 -7 -18 -18 0 -25 -19 -42 -47 -42 -13 0 -23 -6 -22 -12 3 -29 -2
-37 -28 -40 -22 -2 -29 -9 -31 -30 -3 -21 -9 -27 -30 -30 -21 -2 -28 -9 -30
-30 -3 -22 -9 -28 -27 -28 -13 0 -28 -6 -32 -14 -4 -8 -19 -16 -33 -18 -19 -2
-26 -10 -28 -30 -2 -21 -9 -28 -30 -30 -18 -2 -28 -10 -32 -28 -4 -18 -14 -26
-35 -30 -21 -4 -31 -12 -35 -30 -4 -19 -14 -26 -40 -30 -29 -4 -36 -10 -38
-32 -3 -22 -9 -27 -35 -30 -23 -2 -33 -9 -35 -23 -3 -20 -58 -45 -97 -45 -9 0
-15 -6 -14 -12 3 -29 -2 -37 -28 -40 -19 -2 -29 -10 -33 -28 -4 -18 -14 -26
-35 -30 -21 -4 -31 -12 -33 -27 -3 -18 -13 -23 -55 -30 -35 -5 -52 -13 -53
-23 -1 -8 -2 -21 -3 -27 0 -7 -13 -13 -28 -13 -16 0 -37 -7 -47 -15 -28 -21
-63 -19 -76 5 -6 11 -19 20 -29 20 -19 0 -31 34 -31 86 0 17 -6 23 -27 26 -26
3 -28 7 -33 58 -4 48 -8 55 -30 60 -22 5 -26 12 -30 60 -4 48 -8 55 -30 60
-22 5 -26 12 -30 65 -4 52 -8 60 -27 63 -24 4 -31 31 -36 142 -2 48 -5 55 -23
58 -25 4 -32 38 -35 157 -2 83 -6 95 -29 95 -23 0 -30 91 -30 401 0 303 7 389
30 389 23 0 30 20 30 88 0 94 9 131 34 134 19 3 21 11 27 108 4 58 7 108 8
113 0 4 10 7 21 7 23 0 26 6 35 72 5 38 10 47 28 50 19 3 22 10 25 50 3 42 6
47 30 50 25 3 27 7 32 58 5 51 7 55 33 58 21 3 27 9 27 26 0 53 12 85 34 88
16 2 22 11 24 35 3 28 7 32 35 35 25 2 33 8 36 28 3 20 7 15 20 -27 10 -35 21
-53 31 -53z m-11397 -646 c37 -5 47 -11 49 -28 3 -19 11 -21 93 -26 83 -5 90
-7 93 -27 3 -19 13 -23 88 -33 l84 -12 0 -33 c0 -33 -1 -34 -52 -40 -29 -3
-309 -5 -622 -3 -426 2 -570 6 -573 15 -3 7 8 13 24 15 16 2 29 9 29 18 1 8 2
20 3 27 0 6 13 13 28 15 20 2 29 10 33 28 5 23 11 25 80 30 68 5 75 7 78 27 2
16 11 23 35 26 55 7 482 7 530 1z m14281 -179 c88 -3 164 -9 169 -12 6 -3 22
-8 36 -10 14 -2 37 -5 51 -7 14 -3 28 -5 32 -5 4 -1 8 -11 10 -23 3 -19 10
-23 48 -26 61 -3 68 -7 72 -34 2 -14 11 -24 23 -25 65 -8 85 -16 85 -33 0 -12
-9 -20 -22 -22 -18 -2 -24 -11 -26 -35 -3 -27 -7 -33 -28 -33 -15 0 -24 -6
-24 -15 0 -39 -25 -94 -45 -97 -13 -2 -22 -13 -25 -33 -4 -24 -11 -31 -33 -33
-22 -3 -27 -8 -27 -32 0 -24 -5 -29 -27 -32 -26 -3 -28 -7 -33 -58 -4 -49 -8
-55 -30 -58 -13 -2 -29 -10 -35 -17 -5 -7 -19 -15 -30 -17 -13 -2 -21 -12 -23
-31 -3 -26 -11 -31 -39 -28 -8 1 -13 -9 -13 -23 0 -14 -4 -28 -10 -31 -5 -3
-10 -16 -10 -29 0 -12 -4 -26 -9 -31 -5 -6 -11 -21 -13 -35 -2 -16 -11 -26
-28 -30 -18 -4 -26 -13 -28 -33 -2 -15 -6 -27 -10 -28 -4 0 -26 -3 -50 -5 -48
-6 -72 7 -72 37 0 12 -7 19 -18 19 -23 0 -42 19 -42 42 0 11 -7 18 -19 18 -35
0 -45 25 -30 74 14 49 14 49 149 59 28 1 36 7 38 25 2 13 10 22 21 22 10 0 24
6 31 14 6 8 21 16 33 18 20 3 22 9 22 68 0 59 -2 65 -22 68 -14 2 -23 11 -25
25 -2 17 -11 23 -35 25 -26 3 -32 8 -35 30 -3 24 -8 27 -43 30 -100 6 -124 12
-127 35 -2 18 -12 23 -57 30 -30 4 -57 10 -60 13 -3 2 -5 39 -6 82 0 72 1 77
23 80 12 2 22 10 22 18 0 35 26 94 41 94 9 0 22 7 29 15 7 8 22 15 34 15 11 0
28 5 36 10 8 5 22 8 30 5 8 -2 87 -7 174 -10z m-13486 -90 c6 -2 12 -16 12
-30 0 -21 5 -25 30 -25 25 0 30 -4 30 -24 0 -26 14 -30 140 -39 30 -2 35 -6
35 -27 0 -23 -4 -25 -60 -30 -53 -4 -60 -8 -63 -27 -2 -14 -10 -23 -21 -23
-22 0 -41 -19 -41 -42 0 -11 -7 -18 -18 -18 -23 0 -42 -19 -42 -41 0 -25 -45
-29 -318 -29 l-243 0 3 28 3 27 253 3 253 2 -3 118 -3 117 -220 5 -220 5 -3
27 c-3 27 -3 27 65 30 87 4 414 -2 431 -7z m-1463 -25 c0 -24 -2 -25 -83 -28
-86 -3 -103 5 -88 43 5 13 21 15 88 13 81 -3 83 -4 83 -28z m660 0 l0 -25
-308 -3 c-267 -2 -308 0 -313 13 -4 8 -4 22 0 30 5 13 46 15 313 13 l308 -3 0
-25z m243 3 l-3 -28 -85 0 -85 0 -3 28 -3 27 91 0 91 0 -3 -27z m13022 -153
l5 -175 145 -5 145 -5 0 -25 0 -25 -145 -5 -145 -5 -5 -160 -5 -160 -25 0 -25
0 -5 160 -5 160 -160 5 -160 5 0 25 0 25 160 5 160 5 3 165 c1 91 4 171 7 178
3 7 15 12 27 10 23 -3 23 -6 28 -178z m109 61 c7 -5 14 -19 15 -32 1 -18 8
-25 28 -27 21 -3 27 -9 30 -30 2 -21 9 -28 31 -30 24 -3 28 -7 25 -30 -3 -27
-3 -27 -88 -27 l-85 0 -3 84 c-2 61 1 87 10 92 16 11 20 11 37 0z m-12684 -61
l0 -55 -940 0 -940 0 -3 44 c-2 24 -1 50 2 57 5 12 150 14 943 12 l938 -3 0
-55z m425 -90 l0 -30 -90 0 -90 0 0 30 0 30 90 0 90 0 0 -30z m-1115 -60 l0
-25 -308 -3 c-267 -2 -308 0 -313 13 -4 8 -4 22 0 30 5 13 46 15 313 13 l308
-3 0 -25z m-150 -120 l0 -25 -143 -3 c-120 -2 -143 0 -148 13 -4 8 -4 22 0 30
5 13 28 15 148 13 l143 -3 0 -25z m12936 -40 c12 0 19 -7 19 -18 0 -23 19 -42
41 -42 9 0 22 -7 29 -15 7 -8 21 -15 31 -15 12 0 19 -7 19 -18 0 -23 19 -42
41 -42 22 0 35 -84 25 -164 -6 -46 -11 -55 -29 -58 -17 -2 -23 -11 -24 -38 -9
-120 -14 -139 -36 -142 -19 -3 -23 -11 -27 -63 -5 -54 -7 -60 -28 -61 -13 -1
-28 -6 -35 -13 -6 -6 -21 -11 -34 -11 -18 0 -25 -7 -29 -30 -4 -19 -13 -30
-23 -30 -22 0 -41 -19 -41 -42 0 -11 -7 -18 -18 -18 -23 0 -42 -19 -42 -41 0
-10 -11 -19 -30 -22 -23 -5 -30 -12 -30 -31 0 -13 -7 -29 -15 -36 -8 -7 -15
-21 -15 -31 0 -12 -7 -19 -18 -19 -23 0 -42 -19 -42 -42 0 -11 -7 -18 -18 -18
-23 0 -42 -19 -42 -41 0 -11 -9 -19 -22 -21 -16 -2 -24 -12 -28 -33 -4 -24
-11 -31 -35 -35 -21 -4 -31 -12 -33 -28 -2 -13 -10 -22 -21 -22 -10 0 -24 -6
-31 -14 -6 -8 -21 -16 -33 -18 -15 -2 -23 -12 -27 -33 -4 -24 -11 -31 -32 -33
-21 -3 -27 -9 -30 -30 -2 -21 -9 -28 -30 -30 -21 -3 -27 -9 -30 -30 -2 -21 -9
-28 -30 -30 -21 -3 -27 -9 -30 -30 -2 -21 -9 -28 -30 -30 -26 -3 -33 -13 -28
-37 1 -5 -6 -15 -16 -22 -9 -7 -17 -22 -18 -35 -1 -17 -8 -24 -28 -26 -21 -3
-27 -9 -30 -30 -2 -21 -9 -28 -33 -32 -22 -4 -31 -11 -33 -28 -3 -19 -9 -22
-52 -22 -43 0 -49 3 -52 22 -2 17 -11 24 -33 28 -24 4 -31 11 -33 32 -3 21 -9
27 -30 30 -26 3 -27 6 -27 58 0 52 1 55 27 58 21 3 27 9 30 30 2 21 9 28 30
30 21 3 27 9 30 30 2 21 9 28 30 30 21 3 27 9 30 30 2 21 9 28 31 30 21 3 27
9 27 28 0 22 10 29 34 25 5 -1 16 5 25 13 9 8 27 16 41 18 19 2 26 10 28 30 2
14 10 32 18 38 8 7 14 21 14 31 0 12 7 19 18 19 23 0 42 19 42 42 0 11 7 18
18 18 23 0 42 19 42 42 0 11 7 18 18 18 23 0 42 19 42 42 0 11 7 18 18 18 22
0 42 19 42 40 0 11 16 21 50 30 34 9 50 19 50 30 0 21 20 40 42 40 11 0 18 7
18 18 0 23 19 42 42 42 11 0 18 7 18 18 0 23 19 42 41 42 9 0 22 7 29 15 7 8
20 15 29 15 10 0 21 15 29 40 19 63 17 72 -20 68 -27 -2 -34 -8 -36 -30 -3
-21 -9 -27 -30 -30 -21 -2 -28 -9 -30 -30 -3 -22 -9 -28 -26 -28 -13 0 -29 -6
-36 -14 -6 -8 -21 -16 -33 -18 -13 -2 -23 -13 -27 -28 -4 -18 -14 -26 -32 -28
-21 -2 -28 -9 -30 -30 -2 -21 -9 -28 -30 -30 -21 -3 -27 -9 -30 -30 -2 -21 -9
-28 -30 -30 -21 -3 -27 -9 -30 -30 -2 -21 -9 -28 -30 -30 -21 -3 -27 -9 -30
-30 -2 -21 -9 -28 -30 -30 -21 -3 -27 -9 -30 -30 -2 -21 -9 -28 -33 -32 -21
-4 -31 -12 -33 -27 -2 -12 -10 -27 -18 -33 -8 -7 -14 -21 -14 -31 0 -12 -7
-19 -18 -19 -23 0 -42 -19 -42 -42 0 -11 -7 -18 -19 -18 -10 0 -24 -7 -31 -15
-7 -8 -20 -15 -29 -15 -22 0 -41 -19 -41 -42 0 -11 -7 -18 -18 -18 -23 0 -42
-19 -42 -42 0 -11 -7 -18 -18 -18 -23 0 -42 -19 -42 -42 0 -11 -7 -18 -18 -18
-23 0 -42 -19 -42 -41 0 -12 -12 -19 -46 -24 -26 -3 -50 -3 -55 2 -10 10 -12
88 -4 130 6 25 13 33 34 35 20 2 27 9 29 31 3 21 9 27 27 27 13 0 27 5 30 11
4 6 13 8 21 5 7 -3 21 2 29 11 9 9 26 16 38 17 16 1 22 8 23 24 2 28 8 34 36
36 13 0 24 8 24 16 1 8 2 20 3 27 0 6 13 13 29 15 21 2 28 9 30 30 3 21 9 27
30 30 21 2 28 9 30 30 3 21 9 27 30 30 18 2 28 10 30 23 2 11 10 27 17 35 7 8
15 24 17 35 2 13 14 22 33 25 21 4 31 12 33 27 3 18 13 23 55 30 47 7 52 11
55 36 3 22 8 27 32 27 25 0 29 4 32 33 2 24 8 33 25 35 12 2 27 10 33 18 7 8
21 14 31 14 11 0 19 9 21 22 2 17 11 24 33 28 24 4 31 11 33 32 3 21 9 27 30
30 21 2 28 9 30 30 3 21 9 27 30 30 21 2 28 9 30 30 3 21 9 27 30 30 l27 3 6
139 c5 114 9 140 23 148 9 5 16 20 16 33 0 18 6 25 19 25 10 0 24 6 31 14 6 8
21 16 33 18 13 2 23 11 25 23 7 43 11 48 43 41 18 -3 40 -6 50 -6z m357 -157
l2 -162 28 -3 c25 -3 27 -6 30 -60 3 -53 5 -57 30 -60 21 -2 28 -9 30 -30 3
-21 9 -27 30 -30 21 -2 28 -9 30 -30 3 -23 8 -28 32 -28 24 0 29 -5 32 -27 3
-27 6 -28 63 -30 128 -5 165 -13 165 -34 0 -10 3 -20 8 -20 4 -1 16 -3 27 -5
86 -15 115 -32 115 -71 0 -18 7 -25 30 -29 19 -4 30 -13 30 -23 0 -22 19 -41
42 -41 11 0 18 -7 18 -20 0 -13 -7 -20 -19 -20 -20 0 -31 -18 -31 -50 0 -13
-9 -20 -27 -22 -22 -2 -29 -9 -31 -30 -2 -16 -7 -28 -12 -28 -4 0 -11 -15 -14
-32 -13 -66 -14 -73 -15 -80 -1 -5 -12 -8 -26 -8 -21 0 -25 -5 -25 -29 0 -25
-4 -30 -27 -33 -21 -2 -28 -9 -29 -25 -2 -36 -12 -51 -36 -55 -16 -2 -24 -11
-28 -33 -4 -21 -12 -31 -30 -35 -18 -4 -26 -14 -28 -33 -3 -25 -11 -31 -38
-28 -7 1 -15 -24 -20 -56 -8 -53 -11 -58 -36 -61 -24 -3 -28 -8 -28 -33 0 -16
-4 -30 -10 -30 -5 -1 -14 -3 -20 -4 -5 -1 -15 -3 -20 -4 -6 0 -10 -7 -9 -13 1
-7 -1 -30 -5 -50 -6 -27 -14 -38 -29 -40 -15 -2 -23 -12 -27 -33 -4 -24 -11
-31 -35 -35 l-30 -5 -3 -246 -2 -246 -38 -7 c-48 -8 -146 -8 -249 1 -71 5 -83
9 -83 24 0 24 -21 28 -150 32 -85 2 -105 5 -106 17 -1 8 -2 21 -3 28 -1 8 -21
12 -65 12 -93 0 -124 8 -128 34 -3 18 -11 22 -63 26 -53 4 -60 8 -65 30 -5 22
-12 26 -60 30 -48 4 -55 8 -60 30 -5 23 -11 25 -64 28 l-57 3 3 -28 c3 -25 8
-29 56 -36 42 -7 52 -12 52 -28 0 -22 6 -25 72 -34 38 -5 47 -10 50 -28 3 -20
10 -22 65 -25 59 -3 62 -4 65 -30 3 -27 4 -27 98 -32 90 -5 94 -6 100 -30 6
-25 8 -25 125 -30 111 -5 120 -6 120 -25 0 -27 31 -32 185 -34 69 -1 142 -4
163 -7 l37 -7 0 -212 0 -212 -38 -7 c-21 -3 -206 -6 -412 -6 -206 0 -444 -3
-527 -7 -135 -5 -153 -8 -153 -23 0 -15 -25 -17 -262 -23 -145 -4 -436 -8
-648 -8 -212 -1 -438 -4 -502 -6 -107 -5 -118 -7 -118 -24 0 -18 -11 -19 -167
-20 -93 0 -202 -4 -243 -8 -43 -4 -89 -3 -112 3 -40 11 -41 14 -51 146 -1 27
-7 36 -23 38 -25 4 -34 35 -34 121 0 63 -6 77 -35 82 -18 4 -21 14 -25 89 -5
84 -5 85 -32 88 -28 3 -28 5 -29 75 -1 40 -2 77 -4 82 -1 6 -3 16 -3 23 -1 6
-11 12 -21 12 -15 0 -20 10 -26 51 -4 27 -5 53 -1 56 7 7 519 4 574 -3 30 -5
42 -11 42 -23 0 -22 19 -41 42 -41 11 0 18 -7 18 -19 0 -25 62 -30 380 -31
334 0 430 -7 430 -30 0 -14 13 -19 71 -24 78 -8 93 -2 87 35 -2 20 -10 25 -40
27 -29 2 -38 8 -38 22 0 10 -6 20 -14 23 -8 3 -129 6 -268 6 -325 1 -528 10
-528 25 0 6 -3 28 -6 48 -6 34 -5 37 22 40 23 2 30 9 32 31 3 20 9 27 26 27
12 0 28 6 34 13 7 6 36 17 65 22 39 8 53 15 55 30 2 11 10 25 17 30 7 6 15 22
17 35 3 22 9 26 58 30 39 4 55 9 56 20 1 8 2 21 3 28 0 6 14 12 31 12 25 0 30
4 30 25 0 29 8 33 70 37 31 2 45 8 46 18 1 8 2 21 3 28 0 6 14 12 30 12 25 0
30 4 33 27 2 22 9 29 33 33 21 4 31 12 33 27 3 20 21 27 87 36 11 1 22 12 25
27 8 33 53 36 58 3 2 -12 10 -27 18 -33 8 -7 14 -23 14 -36 0 -20 5 -24 30
-24 27 0 30 -3 30 -29 0 -25 4 -30 28 -33 21 -2 28 -9 30 -30 3 -21 9 -27 30
-30 21 -2 28 -9 30 -30 3 -24 8 -28 33 -28 26 0 29 -3 29 -30 0 -27 3 -30 30
-30 30 0 30 0 30 -60 0 -57 -1 -60 -24 -60 -13 0 -29 -6 -36 -14 -6 -8 -21
-16 -33 -18 -15 -2 -23 -11 -25 -30 -3 -21 -9 -27 -30 -30 -21 -2 -28 -9 -30
-30 -3 -21 -9 -27 -30 -30 -20 -2 -28 -9 -30 -27 -6 -37 11 -45 62 -30 30 9
46 19 46 29 0 21 20 40 42 40 11 0 18 7 18 18 0 23 19 42 41 42 10 0 19 9 21
21 2 12 10 25 18 29 8 4 25 12 37 18 34 18 133 16 133 -2 0 -9 12 -16 33 -18
20 -2 33 -9 33 -18 1 -8 2 -21 3 -27 1 -8 16 -13 41 -13 38 0 40 2 40 30 0 27
-3 30 -34 30 -18 0 -39 7 -46 15 -7 8 -25 15 -40 15 -25 0 -28 4 -33 48 -6 57
11 122 33 122 21 0 40 20 40 41 0 9 7 22 15 29 8 7 15 21 15 31 0 12 7 19 18
19 23 0 42 19 42 42 0 11 7 18 18 18 23 0 42 19 42 42 0 11 7 18 18 18 23 0
42 19 42 42 0 11 7 18 18 18 23 0 42 19 42 42 0 11 7 18 18 18 23 0 42 19 42
42 0 11 7 18 19 18 10 0 24 7 31 15 7 8 23 15 36 15 19 0 26 7 31 30 3 19 12
30 22 30 22 0 41 19 41 42 0 11 7 18 18 18 23 0 42 19 42 41 0 10 11 19 30 23
23 4 30 11 30 30 0 13 7 29 15 36 8 7 15 21 15 31 0 12 7 19 18 19 23 0 42 19
42 42 0 11 7 18 18 18 23 0 42 19 42 42 0 11 7 18 18 18 23 0 42 19 42 42 0
11 7 18 18 18 23 0 42 19 42 42 0 11 7 18 19 18 10 0 24 6 31 14 6 8 21 16 33
18 18 2 23 12 31 60 7 47 12 57 30 60 16 2 22 11 23 38 9 120 14 139 36 142
19 3 23 11 27 63 4 53 8 60 28 63 18 3 22 10 22 38 0 27 -4 34 -19 34 -14 0
-21 8 -23 28 -2 21 -9 28 -30 30 -21 3 -27 9 -30 30 -2 21 -9 28 -31 30 -16 2
-31 10 -34 18 -3 8 -16 14 -29 14 -17 0 -24 6 -24 19 0 25 23 29 155 27 l100
-1 3 -162z m357 137 c0 -19 -6 -26 -25 -28 -14 -2 -29 -10 -33 -18 -4 -8 -19
-14 -32 -14 -21 0 -25 -5 -25 -30 0 -27 3 -30 29 -30 25 0 30 4 33 28 2 21 8
27 28 27 20 0 26 -6 28 -27 3 -27 5 -28 63 -28 56 0 59 -1 59 -24 0 -22 5 -25
58 -31 31 -3 64 -7 72 -8 8 -1 16 -12 18 -24 3 -22 22 -27 142 -36 27 -2 35
-7 40 -27 4 -18 14 -26 32 -28 21 -2 28 -9 30 -30 2 -21 9 -28 30 -30 21 -3
27 -9 30 -30 2 -21 9 -28 30 -30 21 -3 27 -9 30 -30 2 -21 9 -28 30 -30 21 -3
27 -9 30 -30 2 -21 9 -28 30 -30 21 -3 27 -9 30 -30 2 -21 9 -28 31 -30 20 -3
27 -9 27 -25 0 -28 38 -67 66 -67 17 0 23 -7 26 -27 2 -22 9 -29 30 -31 21 -3
27 -9 30 -30 2 -21 9 -28 30 -30 21 -3 27 -9 30 -30 2 -21 9 -28 31 -30 15 -2
28 -9 28 -15 1 -7 2 -19 3 -27 0 -8 13 -16 28 -18 21 -3 27 -9 30 -30 2 -21 9
-28 30 -30 21 -3 27 -9 30 -30 2 -21 9 -28 30 -30 21 -3 27 -9 30 -30 2 -21 9
-28 30 -30 21 -3 27 -9 30 -30 2 -21 9 -28 30 -30 21 -3 27 -9 30 -30 2 -20 9
-28 28 -30 34 -5 58 -29 62 -61 2 -20 9 -27 31 -29 29 -4 31 -11 21 -74 -5
-28 -12 -38 -28 -40 -15 -2 -22 -11 -24 -31 -2 -15 -12 -32 -23 -37 -11 -6
-19 -21 -19 -36 0 -21 -4 -25 -22 -22 -17 2 -24 12 -28 33 -4 21 -11 31 -28
33 -13 2 -22 10 -22 21 0 22 -19 41 -42 41 -11 0 -18 7 -18 18 0 23 -19 42
-42 42 -11 0 -18 7 -18 18 0 23 -19 42 -42 42 -11 0 -18 7 -18 18 0 23 -19 42
-41 42 -9 0 -22 7 -29 15 -7 8 -21 15 -31 15 -12 0 -19 7 -19 18 0 23 -19 42
-42 42 -11 0 -18 7 -18 18 0 23 -19 42 -42 42 -11 0 -18 7 -18 18 0 23 -19 42
-42 42 -11 0 -18 7 -18 20 0 10 -9 24 -20 30 -11 6 -20 16 -19 23 3 28 -2 36
-28 39 -22 2 -29 9 -31 30 -3 21 -9 27 -30 30 -21 2 -28 9 -30 30 -3 21 -9 27
-30 30 -21 2 -28 9 -30 31 -2 15 -9 28 -15 28 -7 1 -19 2 -27 3 -8 0 -16 13
-18 29 -3 26 -11 31 -40 28 -7 -1 -15 5 -18 14 -4 8 -18 15 -34 15 -24 0 -29
5 -32 28 -2 21 -9 28 -31 30 -26 3 -28 1 -25 -25 2 -22 9 -29 31 -31 15 -2 27
-9 27 -17 0 -8 12 -15 28 -17 21 -2 28 -9 30 -30 3 -24 8 -28 33 -28 26 0 29
-3 29 -30 0 -27 3 -30 30 -30 27 0 30 -3 30 -29 0 -25 4 -30 28 -33 21 -2 28
-9 30 -30 3 -21 9 -27 30 -30 21 -2 28 -9 30 -30 3 -21 9 -27 30 -30 20 -2 28
-9 30 -28 2 -14 10 -29 18 -33 8 -4 14 -19 14 -32 0 -18 6 -24 28 -27 21 -2
28 -9 30 -30 3 -21 9 -27 30 -30 21 -2 28 -9 30 -30 3 -22 9 -28 27 -28 13 0
28 -6 32 -14 4 -8 19 -16 33 -18 19 -2 26 -10 28 -30 3 -21 9 -27 30 -30 21
-2 28 -9 30 -30 3 -23 8 -28 32 -28 24 0 29 -5 32 -27 2 -22 9 -29 30 -31 21
-3 27 -9 30 -30 2 -21 9 -28 30 -30 22 -3 27 -9 30 -35 2 -24 8 -33 26 -35 30
-5 30 -39 0 -44 -17 -2 -24 -12 -28 -33 -4 -24 -10 -30 -30 -30 -20 0 -26 6
-30 30 -4 21 -12 31 -26 33 -15 2 -24 15 -34 52 -9 34 -19 50 -30 50 -21 0
-40 19 -40 40 0 11 -16 21 -50 30 -34 9 -50 19 -50 30 0 21 -20 40 -42 40 -11
0 -18 7 -18 18 0 23 -19 42 -41 42 -10 0 -19 9 -21 21 -2 12 -11 26 -20 30
-10 5 -26 13 -35 17 -9 5 -20 16 -25 25 -4 9 -12 25 -17 35 -4 9 -18 18 -30
20 -12 2 -21 11 -21 21 0 22 -19 41 -42 41 -11 0 -18 7 -18 18 0 23 -19 42
-42 42 -11 0 -18 7 -18 18 0 23 -19 42 -42 42 -11 0 -18 7 -18 18 0 23 -19 42
-42 42 -11 0 -18 7 -18 18 0 23 -19 42 -42 42 -11 0 -18 7 -18 18 0 23 -19 42
-42 42 -11 0 -18 7 -18 18 0 23 -19 42 -41 42 -10 0 -19 9 -21 21 -2 12 -10
25 -18 29 -43 20 -54 28 -62 43 -25 53 -24 52 -76 49 -49 -2 -51 -1 -54 25
l-3 28 -113 6 c-62 3 -114 8 -115 10 -8 11 -27 78 -27 92 0 11 -8 17 -25 17
-20 0 -25 5 -25 25 0 20 -5 25 -24 25 -53 0 -62 61 -11 70 28 5 30 8 35 60 5
51 7 55 33 58 22 3 27 8 27 32 0 24 -5 29 -27 32 -27 3 -28 6 -31 62 -5 88 -5
87 90 84 81 -3 83 -4 83 -28z m-11998 -36 c35 -3 65 -10 68 -15 4 -5 57 -9
119 -9 153 0 206 -8 206 -30 0 -23 43 -30 180 -30 138 0 180 -7 180 -30 0 -21
65 -29 265 -33 118 -2 119 -2 125 -27 l6 -25 139 -2 c164 -3 187 -7 183 -31
-4 -21 43 -28 187 -31 55 -1 103 -5 107 -9 4 -4 9 -93 10 -197 3 -187 3 -190
25 -193 13 -2 23 -11 25 -25 4 -26 45 -36 151 -36 60 -1 67 -3 67 -21 0 -16 7
-20 35 -20 28 0 35 4 35 20 0 13 7 20 20 20 13 0 20 -7 20 -19 0 -20 18 -31
50 -31 13 0 20 -9 22 -27 2 -22 9 -29 30 -31 21 -3 27 -9 30 -30 3 -25 6 -27
60 -30 53 -3 57 -5 60 -30 l3 -27 210 -6 c116 -3 213 -7 217 -8 4 0 8 -11 10
-23 2 -17 12 -24 33 -28 l30 -5 0 -280 0 -280 -415 -1 c-515 -1 -590 3 -590
26 0 15 -17 18 -135 23 -74 3 -215 6 -312 7 -98 0 -181 4 -186 9 -4 4 -6 117
-5 252 l3 244 55 5 55 5 3 373 2 372 -30 0 -30 0 0 -345 0 -345 -465 0 c-478
0 -470 -1 -466 37 1 7 -24 15 -61 20 -45 6 -63 12 -63 23 -1 28 -16 40 -51 40
-29 0 -34 3 -34 24 0 20 -6 25 -45 30 -25 4 -114 6 -198 5 -183 -2 -225 5
-229 34 -3 24 -33 34 -105 36 -35 1 -42 4 -45 24 -3 21 -8 22 -133 29 -71 4
-141 10 -155 14 -14 3 -63 9 -110 13 l-85 6 0 205 0 205 28 3 c23 3 27 8 27
33 l0 29 240 0 240 0 0 -29 c0 -16 6 -31 15 -35 12 -4 15 -42 17 -223 l3 -218
25 0 25 0 3 222 2 222 -27 3 c-21 2 -29 9 -31 28 -2 14 -10 29 -18 33 -8 4
-14 19 -14 32 l0 25 -239 0 -240 0 -3 -27 c-2 -22 -9 -29 -30 -31 -22 -3 -28
-9 -28 -28 0 -14 -7 -27 -15 -30 -13 -5 -15 -35 -15 -179 0 -99 -4 -176 -9
-180 -6 -3 -344 -5 -753 -5 -409 0 -771 -3 -805 -6 -51 -6 -63 -10 -63 -25 0
-14 -11 -18 -67 -21 -38 -1 -121 -1 -185 1 -108 3 -118 5 -118 22 0 13 7 19
24 19 21 0 25 6 28 33 2 26 8 33 30 35 21 3 27 9 30 30 2 21 9 28 33 32 21 4
31 12 33 27 2 12 10 27 18 33 8 7 14 20 14 29 0 15 59 41 95 41 9 0 15 9 15
24 0 19 6 25 28 28 21 2 28 9 30 30 2 21 9 28 30 30 18 2 28 10 32 28 4 15 15
26 30 30 18 4 26 14 28 32 2 21 9 28 30 30 21 2 28 9 30 31 l3 27 482 2 c669
3 639 2 652 22 9 15 55 16 605 11 327 -3 623 -8 657 -11z m3148 -216 c3 -35 5
-173 3 -308 l-3 -245 -57 -9 c-47 -7 -57 -12 -60 -30 -2 -15 -11 -22 -33 -24
-148 -12 -155 -13 -155 -32 0 -26 -50 -32 -235 -28 -144 3 -150 4 -153 24 -3
22 -35 34 -88 34 -17 0 -23 6 -26 27 -3 25 -8 29 -55 36 -40 7 -53 13 -53 26
0 22 -19 41 -42 41 -11 0 -18 7 -18 20 0 11 -6 23 -13 26 -7 2 -79 6 -160 7
-116 2 -150 6 -158 17 -12 18 -8 285 5 297 4 4 141 11 304 14 163 3 298 6 299
7 1 1 3 12 5 25 3 21 9 22 113 28 61 4 111 7 113 8 1 0 2 10 2 20 0 17 11 20
128 25 159 9 172 11 172 36 0 18 7 20 79 20 l79 0 7 -62z m10893 -2809 l-3
-2394 -6565 0 -6565 0 -3 28 c-3 24 0 27 27 27 28 0 31 3 31 29 0 25 4 30 28
33 24 3 28 8 36 55 7 42 13 53 30 55 20 3 21 8 21 158 l0 154 -25 6 c-19 4
-26 14 -30 40 -4 29 -10 36 -32 38 -23 3 -28 8 -28 32 0 24 -5 29 -27 32 -22
2 -28 8 -28 28 l0 25 945 5 c520 3 946 7 948 8 1 1 2 11 2 21 0 20 23 25 140
34 27 1 36 7 38 23 3 24 35 34 107 34 86 0 135 11 135 31 0 21 20 27 95 31 42
3 50 6 53 24 3 23 39 34 117 34 75 0 115 11 115 31 0 25 7 28 91 30 88 2 99 6
99 29 0 18 41 30 106 30 16 0 35 5 40 10 6 6 53 13 105 16 124 7 139 10 139
33 0 20 23 25 140 34 27 1 36 7 38 24 3 22 18 25 162 36 26 1 36 7 38 22 6 31
12 34 92 36 89 2 100 5 100 29 0 15 11 19 68 25 37 3 76 7 87 8 12 1 21 11 23
23 2 17 12 23 49 28 25 3 65 6 89 6 55 0 74 8 74 30 0 15 11 19 68 25 37 3 76
7 87 8 12 1 21 11 23 24 3 23 35 29 177 36 41 2 50 6 53 22 6 31 12 34 77 36
74 3 85 6 85 29 0 19 25 24 140 33 27 1 36 7 38 23 3 20 12 22 100 30 53 4
101 7 105 6 4 -1 16 2 25 7 10 5 46 12 82 16 75 8 80 10 80 35 0 19 38 26 175
33 41 2 50 6 53 22 6 31 12 34 92 36 89 2 100 5 100 29 0 15 13 20 73 27 63 7
72 11 75 30 3 23 35 29 177 36 41 2 50 6 53 22 6 31 12 34 92 36 89 2 100 5
100 29 0 18 21 23 160 33 26 1 36 7 38 22 6 31 12 34 92 36 89 2 100 5 100 29
0 15 11 19 68 25 37 3 76 7 87 8 12 1 21 11 23 23 2 17 12 23 49 28 25 3 64 6
87 6 48 0 62 8 67 35 4 18 13 20 83 23 44 2 88 8 98 13 10 5 62 12 116 15 118
7 120 7 124 36 3 21 9 23 61 26 53 3 57 5 57 28 0 13 6 26 13 29 6 2 251 6
542 9 292 2 531 5 533 5 1 1 2 9 2 19 0 18 16 19 248 25 136 4 425 7 643 7
218 0 518 3 667 7 255 6 272 7 272 25 0 16 10 18 78 20 66 2 123 4 169 7 10 1
13 62 15 254 l3 252 172 5 c94 3 175 9 180 13 4 5 8 16 8 25 0 15 15 18 105
22 100 5 105 6 108 28 2 12 6 23 10 23 4 1 54 4 112 8 105 6 105 6 108 33 3
26 6 27 65 30 55 3 62 6 65 24 3 18 13 23 60 30 48 8 57 12 62 34 5 19 14 26
40 30 29 4 36 10 38 32 3 25 7 27 60 30 54 3 57 5 60 31 3 22 8 27 32 27 15 0
30 6 33 14 3 8 28 16 61 20 50 7 56 10 56 31 0 18 6 24 28 27 21 2 28 9 30 31
3 23 8 27 33 27 26 0 29 3 29 30 0 27 3 30 29 30 25 0 30 4 33 28 2 21 9 28
31 30 21 3 27 9 27 27 0 13 6 28 14 32 8 4 16 19 18 33 2 19 10 26 31 28 22 3
27 8 27 32 0 24 5 29 28 32 21 2 28 9 30 31 3 21 9 27 28 27 15 0 24 6 24 15
0 39 26 95 43 95 11 0 21 9 24 19 3 12 15 21 32 23 24 3 26 7 29 60 3 53 5 57
30 60 24 3 28 8 35 56 7 42 12 52 28 52 22 0 25 6 34 72 5 38 10 47 28 50 20
3 22 10 25 66 3 58 4 62 27 62 18 0 25 5 25 19 0 11 5 43 12 72 12 51 12 52
20 22 4 -17 7 -1108 6 -2424z m-15058 2386 c7 -9 29 -15 54 -15 22 0 78 -3
124 -7 69 -5 82 -9 82 -23 0 -25 20 -30 119 -30 131 0 181 -9 181 -31 0 -21
20 -28 100 -31 l55 -3 3 -304 c1 -177 -2 -309 -7 -314 -5 -5 -51 -10 -103 -11
-75 -1 -93 -4 -94 -16 -1 -8 -2 -20 -3 -27 0 -6 -13 -13 -28 -15 -20 -2 -29
-10 -33 -28 -4 -18 -13 -26 -33 -28 -22 -3 -27 -8 -27 -32 0 -19 -6 -30 -17
-32 -9 -2 -237 -1 -507 2 l-491 5 -5 460 -5 460 -27 3 -28 3 -2 -463 -3 -463
-565 0 -565 0 -3 462 -2 461 103 7 c57 4 171 7 253 6 82 -1 228 2 324 6 96 5
392 9 656 11 420 2 483 0 494 -13z m-1895 -480 l0 -460 -45 -6 c-57 -8 -68 -3
-72 29 -3 24 -9 28 -55 36 -42 7 -53 13 -55 30 -2 14 -12 22 -33 26 -23 4 -31
11 -33 31 l-3 26 -202 6 c-111 4 -338 7 -503 7 l-301 0 -7 38 c-3 20 -6 135
-6 254 l0 217 -27 3 c-17 2 -28 9 -28 18 0 18 79 27 252 29 124 1 143 5 143
31 0 23 42 29 235 32 172 2 185 4 185 28 0 26 49 32 223 31 123 -1 148 2 152
14 3 8 7 22 10 30 4 13 20 15 87 13 l83 -3 0 -460z m2880 285 l154 0 3 -27 c3
-25 7 -28 48 -31 61 -3 68 -7 72 -34 2 -19 11 -24 43 -28 32 -4 40 -10 45 -30
3 -14 14 -26 25 -28 32 -6 38 -18 31 -66 -6 -36 -11 -45 -29 -48 -13 -2 -23
-11 -24 -23 -12 -128 -14 -134 -36 -137 -20 -3 -23 -11 -28 -81 -4 -43 -9 -81
-13 -84 -12 -12 -116 -15 -241 -8 -112 6 -125 9 -125 25 0 22 -28 33 -73 29
-18 -2 -38 0 -45 5 -9 5 -12 75 -12 286 0 285 1 296 38 284 8 -2 83 -4 167 -4z
m12477 -32 c2 -17 11 -24 33 -28 24 -4 31 -11 33 -32 3 -21 9 -27 30 -30 21
-2 28 -9 30 -30 3 -21 9 -27 30 -30 21 -2 28 -9 30 -30 3 -21 9 -27 30 -30 21
-2 28 -9 30 -30 3 -21 9 -27 30 -30 21 -2 28 -9 30 -30 2 -20 9 -28 24 -28 27
0 68 -40 68 -67 0 -19 6 -23 29 -23 25 0 30 -4 33 -27 2 -22 9 -29 30 -31 21
-3 27 -9 30 -30 2 -21 9 -28 30 -30 21 -3 27 -9 30 -30 2 -21 9 -28 30 -30 21
-3 27 -9 30 -30 2 -21 9 -28 30 -30 21 -3 27 -9 30 -30 2 -21 9 -28 30 -30 22
-3 27 -9 30 -35 2 -24 8 -33 26 -35 14 -2 22 -10 22 -22 0 -15 -11 -20 -52
-27 -48 -7 -53 -11 -56 -35 -2 -21 -9 -28 -30 -30 -18 -2 -28 -10 -32 -28 -4
-17 -14 -26 -30 -28 -14 -2 -30 -8 -36 -13 -7 -5 -35 -12 -62 -16 -46 -5 -51
-8 -54 -32 -3 -22 -9 -27 -43 -31 -32 -4 -40 -10 -45 -30 -5 -22 -12 -26 -60
-30 -48 -4 -55 -8 -60 -30 -5 -22 -12 -26 -65 -30 -52 -4 -60 -8 -63 -27 -3
-23 -36 -30 -167 -36 -57 -2 -60 -3 -63 -29 l-3 -28 -94 0 c-106 0 -125 -5
-125 -30 0 -16 -13 -19 -112 -25 -62 -4 -140 -5 -173 -3 l-60 3 -3 195 c-4
246 1 298 31 302 15 2 23 12 27 33 4 24 11 31 33 33 23 3 27 8 27 33 0 24 4
29 25 29 16 0 25 6 25 15 0 39 25 94 45 97 13 2 22 13 25 33 4 21 12 31 30 35
21 5 26 14 33 57 7 42 12 52 30 55 15 2 23 12 27 33 4 24 11 31 33 33 15 2 27
9 27 18 0 8 10 14 25 14 20 0 25 5 25 24 0 14 5 28 10 31 6 3 10 16 10 29 0
12 4 26 9 32 5 5 11 20 13 34 2 16 11 26 28 30 21 5 26 14 34 58 6 38 13 52
25 52 22 0 41 19 41 42 0 27 38 23 42 -4z m-16739 -27 c4 -1 6 -114 5 -252
l-3 -251 -560 1 c-307 1 -562 4 -565 7 -9 10 -12 356 -3 365 5 5 75 9 157 10
82 0 155 3 162 6 8 3 14 13 14 23 0 24 42 30 234 31 87 0 164 3 172 6 8 3 14
13 14 23 0 16 14 19 128 25 70 3 133 7 141 8 12 2 75 0 104 -2z m5492 -371 l0
-245 -40 -7 c-22 -4 -120 -5 -217 -1 -159 5 -178 8 -178 23 0 22 -64 29 -275
30 -159 1 -167 3 -160 50 2 14 7 46 10 72 5 38 10 47 28 50 12 2 23 10 24 18
1 8 5 41 8 73 5 46 10 57 25 57 21 0 26 11 29 69 1 25 4 48 7 53 3 4 170 7
372 6 l367 -3 0 -245z m-6692 189 c2 -2 2 -75 -1 -161 l-4 -158 -462 -1 c-253
0 -479 -3 -501 -7 -31 -6 -40 -13 -45 -32 l-6 -25 -159 -3 c-196 -4 -245 2
-245 28 0 15 11 20 53 27 47 7 52 11 55 35 3 27 3 27 95 30 87 3 92 4 95 26 3
21 8 22 81 22 79 0 101 9 101 42 0 13 8 18 31 18 17 0 38 4 47 9 9 5 60 14
112 21 136 17 140 18 140 39 0 16 12 19 93 26 82 6 115 10 140 14 4 0 7 10 7
21 0 11 3 21 8 21 4 1 68 4 142 8 147 7 218 7 223 0z m9214 -138 c56 -5 236
-10 400 -12 164 -1 312 -3 328 -4 17 -2 87 -3 158 -4 116 -1 127 -3 127 -19 0
-17 14 -19 182 -25 99 -4 251 -7 337 -7 86 0 247 -3 359 -7 181 -6 202 -8 202
-23 0 -19 63 -22 763 -36 290 -6 317 -8 317 -24 0 -15 20 -18 188 -23 103 -4
271 -7 373 -7 102 0 268 -3 367 -7 158 -5 182 -8 182 -22 0 -9 9 -22 20 -29
18 -11 20 -23 20 -116 0 -117 4 -136 30 -136 15 0 20 -11 26 -56 3 -30 2 -60
-2 -64 -6 -6 -92 -6 -209 0 -110 5 -396 11 -635 14 -421 4 -435 5 -438 24 -4
28 -53 31 -422 32 -173 0 -431 3 -572 6 -236 7 -258 9 -258 24 0 10 -7 20 -15
24 -8 3 -207 5 -442 6 -236 0 -499 3 -585 6 -141 6 -158 9 -158 24 0 10 -7 20
-15 24 -8 3 -194 5 -412 6 -219 0 -469 3 -555 6 -145 7 -158 9 -158 26 0 19
-2 20 -165 22 l-80 1 -3 185 c-1 101 0 191 3 199 5 12 53 13 323 8 174 -4 363
-11 419 -16z m-10027 -268 c3 -3 6 -479 8 -1059 l2 -1054 -852 2 -853 3 0 25
c0 18 6 26 21 28 18 3 23 13 30 60 8 48 12 57 34 62 22 5 26 12 30 60 4 48 8
55 30 60 21 5 26 14 34 57 7 42 13 53 30 55 17 2 21 10 21 38 0 28 -4 36 -22
38 -14 2 -23 11 -25 25 -3 20 -11 23 -87 29 -46 4 -91 10 -100 14 -9 3 -45 8
-81 10 -171 11 -189 14 -192 37 -3 20 -9 22 -63 22 -54 0 -60 -2 -63 -22 -2
-14 -11 -23 -25 -25 -22 -3 -22 -4 -27 -288 l-5 -285 -220 0 -220 0 -3 255
c-2 140 0 278 3 306 l6 52 57 8 c48 8 57 12 62 34 5 20 13 26 45 30 31 4 41
10 43 26 3 18 13 23 60 30 47 8 58 13 60 30 2 17 12 23 47 28 65 10 113 -1
117 -28 2 -15 11 -22 33 -24 147 -12 155 -13 155 -32 0 -19 2 -19 152 -36 48
-5 57 -9 60 -27 2 -18 11 -22 43 -24 22 -1 70 -4 106 -7 36 -2 84 -2 107 1 35
5 41 9 44 31 2 18 10 28 28 32 22 5 26 12 30 60 5 50 7 55 31 58 24 3 27 9 33
55 4 28 11 56 16 62 4 5 10 21 12 35 2 16 11 26 28 30 22 5 26 12 30 60 4 45
9 55 25 58 26 5 45 30 45 58 0 16 7 24 23 26 17 2 23 11 25 35 3 26 8 32 30
35 15 2 27 9 28 18 3 54 17 89 38 92 16 2 22 11 24 35 3 26 8 32 30 35 25 3
27 6 30 61 l3 57 -176 0 -175 0 0 54 0 53 39 7 c61 9 131 -3 131 -24 0 -27 42
-30 473 -30 l397 0 0 30 0 30 -405 0 -405 0 0 25 c0 28 -8 33 -62 38 -57 5
-56 14 4 24 48 7 53 11 56 35 3 21 9 27 30 30 21 2 28 9 30 30 3 21 9 27 30
30 21 2 28 9 30 30 2 21 9 28 30 30 18 2 28 10 32 28 4 18 14 26 35 30 21 4
31 12 33 27 2 16 12 22 45 27 62 9 496 11 505 2 4 -4 9 -93 11 -197 l3 -189
29 0 29 0 0 183 c0 230 4 255 39 259 28 4 93 -2 101 -9z m815 -1213 l0 -1225
-368 0 -368 0 1 1223 c0 672 0 1224 0 1227 0 3 165 4 368 3 l367 -3 0 -1225z
m813 1198 c3 -21 9 -27 30 -30 21 -2 28 -9 32 -33 4 -22 11 -31 28 -33 14 -2
22 -10 22 -22 0 -11 9 -24 20 -30 11 -6 20 -21 20 -35 0 -18 6 -24 28 -27 21
-2 28 -9 30 -30 3 -21 9 -27 30 -30 21 -2 28 -9 30 -30 3 -22 9 -28 27 -28 13
0 28 -6 32 -14 4 -8 19 -16 33 -18 19 -2 26 -10 28 -30 l3 -28 947 -2 c521 -1
1957 -3 3192 -3 l2245 0 0 -875 0 -874 -32 -7 c-21 -4 -39 -2 -50 7 -24 18
-1386 20 -1479 3 -32 -6 -93 -14 -134 -18 -67 -5 -75 -8 -78 -28 -3 -22 -12
-25 -112 -35 -19 -2 -26 -10 -28 -30 -3 -21 -9 -27 -30 -30 -21 -2 -28 -9 -30
-30 -3 -21 -9 -27 -30 -30 -21 -2 -28 -9 -30 -31 l-3 -27 -597 2 -597 3 -5
130 -5 130 -145 0 -145 0 -5 -130 -5 -130 -475 0 -475 0 -5 130 -5 130 -145 0
-145 0 -5 -130 -5 -130 -790 0 -790 0 -5 1000 -5 1000 -57 3 c-53 3 -57 5 -60
30 l-3 27 -480 0 -480 0 -3 -22 c-6 -40 -38 -29 -46 15 -8 50 -8 387 1 395 4
4 171 6 372 5 l366 -3 3 -27z m1470 0 c3 -21 9 -27 30 -30 21 -2 28 -9 30 -30
3 -24 8 -28 33 -28 24 0 29 -4 29 -24 0 -22 4 -23 83 -29 107 -9 2280 -9 2341
-1 33 5 46 11 46 23 0 15 59 41 95 41 9 0 15 6 14 13 -3 28 2 36 28 39 19 2
29 10 33 28 8 32 53 36 59 5 2 -11 8 -23 15 -27 6 -4 141 -7 301 -7 159 -1
395 -4 523 -7 211 -7 232 -9 232 -24 0 -10 7 -20 15 -23 8 -4 146 -6 307 -6
161 -1 384 -4 496 -7 l202 -7 0 -49 c0 -40 -3 -48 -18 -48 -23 0 -42 -19 -42
-42 0 -11 -7 -18 -18 -18 -23 0 -42 -19 -42 -42 0 -10 -7 -18 -17 -18 -9 0
-25 -8 -36 -17 -18 -17 -170 -18 -2902 -18 -2219 0 -2887 3 -2906 12 -13 7
-33 13 -44 15 -13 2 -21 12 -23 30 -3 21 -9 27 -30 30 -21 2 -28 9 -30 30 -3
21 -9 27 -30 30 -21 2 -28 9 -30 30 -3 21 -9 27 -30 30 -20 2 -28 9 -30 28 -2
14 -10 29 -18 33 -8 4 -14 19 -14 32 0 20 -5 25 -25 25 -27 0 -41 20 -31 45 5
13 89 15 703 13 l698 -3 3 -27z m12240 25 c154 -5 172 -8 172 -24 0 -23 20
-29 96 -29 65 0 65 0 62 -27 -2 -22 -9 -29 -30 -31 -21 -3 -27 -9 -30 -30 -2
-21 -9 -28 -33 -32 -20 -3 -31 -12 -33 -25 -5 -26 -30 -45 -59 -45 -13 0 -23
-6 -22 -12 3 -29 -2 -37 -28 -40 -19 -2 -29 -10 -33 -28 -3 -14 -14 -26 -25
-28 -11 -2 -29 -7 -40 -12 -11 -5 -40 -13 -65 -17 -39 -7 -45 -12 -48 -36 l-3
-27 -182 0 c-100 0 -239 3 -309 7 -115 5 -128 8 -128 25 0 10 -3 19 -7 19
-103 18 -113 21 -118 43 -3 11 -6 44 -7 71 -3 43 -6 50 -25 53 -16 2 -23 12
-26 40 -4 32 -3 162 2 185 1 9 682 9 919 0z m-6933 -278 l0 -100 -247 -3
c-163 -1 -248 1 -248 8 0 5 8 10 18 10 23 0 42 19 42 42 0 11 7 18 18 18 23 0
42 19 42 42 0 11 7 18 18 18 23 0 42 19 42 41 0 23 26 27 185 25 l130 -1 0
-100z m813 98 c153 -5 172 -8 172 -23 0 -25 68 -29 475 -30 193 0 434 -3 538
-6 167 -6 187 -9 187 -24 0 -25 69 -30 480 -30 195 0 437 -3 538 -7 164 -5
182 -8 182 -24 0 -24 69 -28 625 -33 253 -3 519 -9 590 -15 108 -8 532 -21
718 -21 39 0 47 -3 47 -19 0 -16 11 -19 92 -25 50 -3 171 -6 268 -6 214 0 270
-6 270 -29 0 -22 19 -41 41 -41 13 0 19 -14 25 -57 8 -49 12 -58 31 -61 23 -3
30 -28 36 -132 2 -38 6 -45 24 -48 24 -4 31 -31 36 -142 2 -48 5 -55 24 -58
22 -3 24 -10 37 -142 2 -19 4 -38 5 -42 0 -5 10 -8 20 -8 20 0 25 -22 34 -140
2 -27 7 -35 27 -40 30 -7 33 -33 5 -38 -28 -6 -45 -21 -45 -43 0 -18 -25 -23
-140 -32 -27 -1 -36 -7 -38 -23 -3 -24 -40 -34 -132 -34 -31 0 -61 -5 -66 -10
-6 -6 -50 -13 -100 -18 -80 -6 -89 -9 -92 -28 -3 -23 -39 -34 -117 -34 -78 0
-114 -11 -117 -34 -3 -18 -11 -21 -58 -24 -80 -3 -100 -10 -100 -31 0 -20 -23
-25 -140 -34 -28 -1 -36 -7 -38 -24 -2 -13 -6 -24 -10 -24 -4 -1 -54 -4 -112
-8 -101 -6 -104 -7 -110 -31 -6 -24 -10 -25 -95 -30 -80 -4 -90 -7 -94 -25 -5
-28 -19 -35 -76 -35 -85 0 -125 -10 -125 -31 0 -25 -7 -28 -91 -30 -88 -2 -99
-5 -99 -29 0 -19 -25 -24 -140 -33 -28 -1 -36 -7 -38 -24 -4 -27 -21 -32 -122
-35 -70 -3 -74 -4 -80 -28 -6 -24 -10 -25 -90 -28 -46 -2 -89 -7 -96 -13 -9
-7 -150 -25 -226 -29 -5 0 -8 -11 -8 -25 0 -24 -3 -25 -57 -26 -32 -1 -62 -2
-68 -4 -5 -1 -16 -3 -22 -3 -7 -1 -13 -11 -13 -21 0 -20 -23 -25 -140 -34 -27
-1 -36 -7 -38 -24 -3 -23 -36 -30 -167 -36 -54 -2 -60 -4 -65 -27 -5 -23 -11
-25 -80 -30 -67 -4 -75 -7 -78 -26 -3 -23 -39 -34 -117 -34 -75 0 -115 -11
-115 -31 0 -25 -7 -28 -91 -30 -88 -2 -99 -5 -99 -29 0 -15 -11 -20 -57 -25
-32 -3 -65 -7 -73 -8 -8 -1 -16 -12 -18 -24 -3 -22 -35 -29 -177 -36 -43 -2
-50 -5 -55 -27 -6 -24 -10 -25 -95 -30 -84 -5 -90 -7 -93 -27 -2 -13 -6 -23
-10 -23 -41 -1 -188 -23 -197 -30 -6 -5 -44 -10 -85 -11 -89 -2 -100 -5 -100
-29 0 -19 -25 -24 -140 -33 -27 -1 -36 -7 -38 -24 -3 -22 -18 -25 -162 -36
-27 -2 -35 -7 -40 -27 -6 -24 -10 -25 -90 -30 -84 -5 -85 -5 -88 -32 -3 -28
-3 -28 -85 -28 -119 0 -155 -8 -159 -34 -2 -16 -10 -21 -30 -20 -16 0 -444 1
-953 2 -918 2 -925 2 -925 22 0 20 7 20 779 20 429 0 786 3 795 6 9 3 16 16
16 29 0 25 29 35 109 35 25 0 63 3 84 6 31 6 37 11 37 30 0 22 4 24 48 25 68
1 97 12 97 34 0 16 8 20 40 22 22 2 64 6 93 9 47 5 52 8 52 30 0 22 4 24 54
24 35 0 58 5 66 15 8 9 36 15 83 17 65 3 72 5 75 25 2 14 11 23 25 25 17 2 22
10 22 33 0 25 -5 31 -30 35 -17 3 -31 12 -31 20 -1 8 -2 21 -3 28 -1 7 -16 12
-41 12 -36 0 -40 3 -40 24 0 22 -5 25 -84 36 -75 10 -85 14 -88 33 -2 18 -13
23 -60 31 -47 7 -57 12 -60 30 -3 18 -11 22 -63 26 -53 4 -60 8 -65 30 -5 21
-12 25 -48 28 -36 3 -42 6 -42 26 0 19 -7 25 -37 30 -21 3 -62 6 -90 6 -49 0
-53 2 -53 24 0 19 -6 24 -37 30 -21 3 -62 6 -90 6 -52 0 -53 0 -53 -30 l0 -30
85 0 85 0 0 -30 0 -30 -83 0 c-46 0 -125 3 -175 6 -82 6 -91 9 -94 28 l-3 21
-850 0 -850 0 -3 -27 c-3 -27 -5 -28 -63 -28 l-59 0 0 -30 0 -31 63 3 c59 3
62 4 65 31 l3 27 127 0 c640 2 1487 -2 1493 -6 5 -3 9 -13 9 -24 0 -10 7 -21
16 -24 9 -3 103 -6 209 -6 l194 0 3 -27 c3 -25 8 -28 43 -30 115 -8 145 -14
145 -33 0 -25 22 -31 115 -30 109 0 145 -7 145 -31 0 -11 3 -20 8 -20 4 -1 21
-3 37 -5 126 -13 135 -15 135 -34 0 -21 10 -26 74 -35 35 -6 46 -12 46 -25 0
-14 -12 -20 -57 -26 -49 -8 -58 -13 -61 -31 -3 -18 -12 -23 -55 -28 -29 -3
-63 -7 -77 -7 -14 -1 -32 -7 -40 -14 -9 -8 -49 -14 -95 -16 -79 -3 -80 -3 -83
-30 -3 -26 -5 -27 -75 -30 -70 -3 -72 -4 -75 -30 -3 -27 -4 -27 -90 -30 -87
-3 -87 -3 -90 -30 l-3 -28 -1073 0 c-591 0 -1087 3 -1104 6 -21 4 -32 13 -34
28 -2 17 -13 22 -58 29 -53 8 -56 10 -68 48 -7 21 -12 45 -12 53 0 8 -10 16
-22 18 -27 4 -33 39 -23 133 6 60 7 61 45 73 22 6 47 12 55 12 9 0 15 9 15 25
0 14 6 26 13 26 6 1 19 2 27 3 8 0 16 10 18 22 2 15 14 23 45 30 35 8 42 13
45 36 3 25 0 27 -40 30 -38 3 -43 6 -46 30 -3 23 1 27 25 30 20 2 29 10 33 28
5 21 13 26 50 30 36 4 46 9 48 26 4 25 40 34 144 34 79 0 98 6 98 31 0 17 8
19 68 19 37 0 213 0 392 1 179 1 454 1 613 0 279 -1 287 -2 287 -21 0 -28 24
-31 190 -28 l145 3 0 25 c0 23 -4 25 -55 30 l-55 5 -3 1005 c-1 553 0 1011 3
1018 5 14 435 17 743 5z m-7359 -269 c20 -4 31 -12 31 -23 0 -22 19 -41 41
-41 13 0 19 -11 24 -42 3 -24 4 -459 3 -968 l-3 -925 -535 0 -535 0 -3 925
c-1 509 0 944 3 967 5 33 11 42 28 45 13 2 23 11 25 23 2 11 5 26 7 33 3 9
101 12 443 12 242 0 454 -3 471 -6z m-3107 -146 c3 -22 8 -23 113 -26 60 -1
114 -7 119 -12 4 -4 5 -29 2 -54 -6 -36 -11 -45 -29 -48 -17 -2 -23 -11 -25
-35 -3 -26 -8 -32 -30 -35 -15 -2 -27 -9 -28 -18 -3 -54 -17 -89 -38 -92 -16
-2 -22 -12 -26 -38 -3 -22 -11 -35 -20 -35 -27 -1 -40 -16 -40 -44 0 -16 -6
-34 -14 -40 -8 -7 -17 -34 -21 -61 -5 -40 -11 -49 -28 -52 -17 -2 -23 -11 -25
-35 -2 -18 -9 -34 -15 -34 -7 -1 -19 -2 -27 -3 -11 -1 -16 -17 -20 -56 -5 -51
-7 -55 -32 -58 -21 -3 -27 -9 -30 -30 -3 -24 -8 -27 -43 -30 -22 -2 -59 -1
-82 3 -33 5 -42 11 -45 28 -3 20 -10 22 -93 27 -85 5 -89 6 -95 30 -5 23 -10
25 -78 28 -70 3 -77 6 -73 39 1 6 -10 13 -25 15 -54 6 -58 68 -5 76 12 2 21
11 21 21 0 22 19 41 41 41 11 0 19 9 21 22 2 17 12 24 33 28 21 4 31 12 33 26
4 28 41 61 72 66 17 2 26 10 28 26 2 13 10 22 21 22 22 0 41 19 41 42 0 11 7
18 18 18 22 0 42 19 42 40 0 11 16 21 50 30 34 9 50 19 50 30 0 21 20 40 41
40 11 0 19 9 21 22 2 17 11 24 33 28 24 4 31 11 33 32 3 22 9 27 35 30 24 2
33 8 35 26 3 18 10 22 42 22 32 0 39 -4 42 -22z m-1417 -1568 l0 -585 -27 -3
c-27 -3 -33 4 -29 34 1 7 -23 15 -56 20 -49 8 -58 12 -63 34 -4 18 -14 26 -35
30 -21 4 -31 12 -33 27 -2 13 -12 23 -25 25 -15 2 -23 12 -27 33 -4 24 -11 31
-33 33 -21 3 -27 9 -27 27 0 13 -6 28 -14 32 -8 4 -16 19 -18 33 -2 16 -11 26
-28 30 -25 6 -25 7 -28 130 -2 69 0 153 3 187 6 53 9 62 28 65 15 2 23 11 25
28 2 14 10 32 17 40 7 8 16 36 20 63 5 35 12 47 24 47 22 0 41 19 41 42 0 11
7 18 18 18 23 0 42 19 42 42 0 11 7 18 18 18 23 0 42 19 42 41 0 11 9 19 22
21 17 2 24 12 28 33 4 25 11 31 40 36 19 4 44 6 55 5 20 -1 20 -8 20 -586z
m842 574 c44 -4 52 -9 55 -27 3 -21 9 -22 93 -25 95 -3 106 -9 100 -52 -2 -14
-7 -46 -10 -72 -5 -38 -10 -47 -28 -50 -15 -2 -23 -12 -27 -33 -4 -21 -12 -31
-30 -35 -22 -5 -26 -12 -30 -60 -4 -48 -8 -55 -30 -60 -22 -5 -26 -12 -30 -60
l-5 -55 -160 0 -160 0 -3 95 c-2 52 0 172 3 267 l7 172 37 3 c42 3 144 0 218
-8z m1833 -1074 l0 -480 -497 0 c-274 0 -515 3 -535 6 -27 5 -38 12 -38 24 0
26 -18 30 -147 29 -64 0 -185 3 -270 7 -136 6 -153 9 -153 24 0 24 -11 27
-115 29 -95 2 -101 4 -107 36 -3 18 -12 20 -93 22 -146 3 -195 11 -195 33 0
26 -19 30 -135 30 -105 0 -119 5 -120 40 0 11 -17 17 -60 22 -33 4 -69 12 -80
17 -11 6 -29 11 -40 13 -19 3 -20 12 -23 303 -1 165 0 305 3 312 3 10 268 13
1305 13 l1300 0 0 -480z m3835 330 l0 -115 -85 0 -85 0 -3 104 c-1 58 0 111 2
118 4 10 26 13 88 11 l83 -3 0 -115z m1260 0 l0 -115 -87 -3 -88 -3 0 114 c0
62 3 117 7 121 4 4 43 5 88 4 l80 -3 0 -115z m3789 -77 c12 -30 -16 -45 -72
-37 -41 5 -52 10 -52 25 0 18 20 24 86 28 22 1 34 -4 38 -16z m-11960 -99 c9
-3 16 -16 16 -29 0 -12 6 -28 14 -35 8 -6 16 -21 18 -33 2 -15 11 -23 30 -25
21 -3 27 -9 30 -30 2 -21 9 -28 31 -30 26 -3 31 -11 28 -39 -1 -7 5 -13 14
-13 39 0 94 -25 97 -45 3 -17 12 -20 60 -23 34 -2 61 -9 68 -17 8 -10 31 -15
66 -15 50 0 53 -1 56 -27 2 -22 9 -29 33 -33 17 -3 30 -12 30 -20 1 -34 16
-40 103 -40 124 0 160 -8 164 -34 3 -20 10 -21 143 -27 77 -4 141 -7 143 -8 1
0 2 -10 2 -20 0 -25 10 -28 115 -30 126 -2 153 -8 157 -35 3 -19 10 -21 93
-26 l90 -5 5 -85 c5 -80 6 -84 30 -90 22 -5 26 -12 32 -70 8 -68 0 -90 -33
-90 -12 0 -19 -7 -19 -18 0 -23 -19 -42 -41 -42 -21 0 -29 -38 -29 -140 0
-102 8 -140 29 -140 22 0 41 -19 41 -41 0 -10 9 -19 21 -21 27 -4 44 -30 36
-52 -6 -15 -79 -16 -862 -16 l-855 0 0 719 c0 566 3 720 13 724 6 3 13 6 14 6
1 1 8 -2 17 -5z m9317 -16 c0 -7 1 -94 2 -193 l2 -180 27 -3 c22 -3 27 -9 30
-35 2 -24 8 -33 25 -35 13 -2 23 -11 25 -25 2 -15 12 -23 33 -27 24 -4 31 -11
35 -35 l5 -30 188 -3 c179 -2 187 -3 187 -22 0 -20 -17 -20 -3365 -18 l-3366
3 0 300 0 300 23 7 c13 3 1401 6 3086 7 2443 1 3062 -2 3063 -11z m799 -588
c0 -18 -7 -20 -80 -20 -73 0 -80 2 -80 20 0 18 7 20 80 20 73 0 80 -2 80 -20z
m-8298 -57 c3 -26 7 -28 48 -29 73 -2 72 -2 68 -31 l-3 -28 -130 0 -130 0 -3
44 c-5 68 -2 71 77 71 69 0 70 0 73 -27z m7948 -63 c0 -27 -3 -30 -30 -30 -27
0 -30 -3 -30 -29 0 -25 -4 -30 -27 -33 -25 -3 -28 -8 -31 -43 -2 -22 -10 -44
-18 -48 -11 -6 -14 -38 -14 -151 0 -78 3 -146 8 -150 4 -4 12 -31 17 -59 9
-46 13 -52 38 -55 23 -3 27 -8 27 -33 0 -26 3 -29 31 -29 27 0 30 -3 27 -27
l-3 -28 -3913 -3 c-3616 -2 -3913 -1 -3919 14 -8 22 9 48 36 52 12 2 21 11 21
21 0 22 19 41 41 41 19 0 29 38 29 110 0 87 7 104 51 118 21 7 46 12 54 12 9
0 15 9 15 25 0 21 5 25 30 25 l30 0 0 70 c0 66 -1 70 -23 70 -27 0 -47 17 -47
40 0 9 -16 20 -40 28 -62 19 -70 17 -70 -23 0 -32 -2 -35 -30 -35 -55 0 -51
62 4 68 21 3 27 8 24 25 -2 12 -10 23 -18 23 -8 1 -21 2 -27 3 -14 1 -18 43
-6 54 3 4 1752 7 3885 7 l3878 0 0 -30z m361 20 c43 0 49 -3 49 -21 0 -12 8
-23 20 -26 11 -3 21 -10 21 -17 1 -6 2 -18 3 -26 0 -8 10 -16 21 -17 75 -9 81
-14 91 -56 7 -32 14 -43 30 -45 17 -2 23 -12 28 -49 3 -25 6 -67 6 -93 0 -26
-3 -68 -6 -93 -5 -37 -11 -47 -28 -49 -17 -2 -22 -13 -30 -60 -7 -51 -11 -57
-35 -60 -20 -2 -27 -9 -29 -29 -2 -21 -10 -27 -45 -35 -31 -7 -43 -14 -45 -30
-2 -17 -12 -23 -49 -28 -25 -3 -67 -6 -93 -6 -26 0 -68 3 -93 6 -37 5 -47 11
-49 28 -2 17 -13 22 -60 30 -44 6 -58 12 -58 25 0 22 -19 41 -41 41 -13 0 -19
14 -25 58 -8 48 -12 57 -31 60 -23 3 -23 6 -23 142 0 136 0 139 23 142 17 2
24 13 31 45 10 42 16 47 91 56 13 1 21 11 23 29 3 22 9 27 35 30 24 2 33 8 35
25 3 20 10 23 65 26 34 2 75 2 91 0 16 -1 50 -3 77 -3z m-8253 -157 l3 -43
-75 0 -76 0 0 38 c0 21 3 42 7 46 4 4 37 6 73 4 l65 -3 3 -42z m246 -28 c3 -8
17 -15 31 -15 21 0 25 -5 25 -29 0 -25 -4 -30 -27 -33 -22 -2 -29 -9 -31 -29
-3 -24 -8 -27 -54 -32 -55 -7 -78 3 -78 34 0 10 -9 19 -21 21 -31 4 -47 33
-33 56 9 14 23 16 68 14 46 -3 56 -1 56 12 0 21 56 22 64 1z m-236 -102 c2
-14 10 -23 21 -23 22 0 41 -19 41 -41 0 -11 9 -19 23 -21 21 -3 22 -7 22 -98
0 -91 -1 -95 -22 -98 -14 -2 -23 -10 -23 -21 0 -22 -19 -41 -41 -41 -11 0 -19
-9 -21 -22 -3 -22 -8 -23 -83 -23 -75 0 -80 1 -83 23 -2 13 -10 22 -21 22 -22
0 -41 19 -41 41 0 11 -9 19 -22 21 -22 3 -23 7 -23 98 0 91 1 95 23 98 13 2
22 10 22 21 0 22 19 41 42 41 11 0 18 7 18 18 0 30 10 33 90 30 69 -3 75 -5
78 -25z m-103 -1113 l0 -595 -910 0 -910 0 -3 598 -2 597 912 -2 913 -3 0
-595z"/>
<path d="M25530 9620 c0 -5 9 -10 20 -10 11 0 20 5 20 10 0 6 -9 10 -20 10
-11 0 -20 -4 -20 -10z"/>
<path d="M23870 8787 c0 -35 0 -35 54 -41 46 -6 55 -11 58 -29 2 -18 12 -23
60 -31 47 -7 57 -12 60 -30 2 -17 10 -21 38 -21 25 0 36 5 38 18 5 23 -15 47
-39 47 -11 0 -19 9 -21 23 -3 19 -12 23 -60 31 -46 7 -58 12 -58 27 0 23 -5
26 -72 34 l-58 7 0 -35z"/>
<path d="M25540 8360 c0 -11 5 -20 10 -20 6 0 10 9 10 20 0 11 -4 20 -10 20
-5 0 -10 -9 -10 -20z"/>
<path d="M25580 8301 c0 -28 3 -31 31 -31 27 0 30 3 27 28 -2 21 -9 28 -30 30
-25 3 -28 0 -28 -27z"/>
<path d="M10904 8105 c-15 -38 -1 -42 191 -49 199 -8 219 -4 213 38 -3 20 -9
21 -201 24 -169 2 -198 0 -203 -13z"/>
<path d="M10797 8054 c-4 -4 -7 -146 -7 -316 l0 -308 30 0 30 0 2 290 c1 160
2 300 2 313 1 16 -5 23 -24 25 -14 2 -29 0 -33 -4z"/>
<path d="M11378 8053 c-17 -4 -18 -27 -18 -308 0 -297 0 -303 21 -308 13 -4
23 0 27 11 11 27 8 590 -3 600 -5 5 -18 7 -27 5z"/>
<path d="M10857 7409 c-4 -13 0 -23 11 -27 9 -4 116 -7 237 -7 121 0 228 3
237 7 11 4 15 14 11 27 -5 20 -11 21 -248 21 -237 0 -243 -1 -248 -21z"/>
<path d="M6224 6778 c3 -13 6 -26 6 -30 0 -4 114 -9 253 -10 l252 -3 0 -460 0
-460 -490 0 c-482 0 -490 0 -493 20 -2 11 -11 25 -19 32 -18 14 -10 43 12 43
9 0 27 7 40 16 19 13 25 25 25 55 0 31 6 43 30 61 24 17 30 29 30 60 0 30 6
42 30 60 24 17 30 29 30 60 0 30 6 42 30 60 24 17 30 29 30 60 0 34 3 38 25
38 17 0 29 9 39 29 9 16 24 31 35 34 16 4 20 15 23 53 2 40 7 51 28 61 20 10
26 22 30 60 4 40 10 50 33 61 59 28 17 78 -54 63 -33 -6 -34 -9 -39 -61 -4
-48 -8 -55 -30 -60 -22 -5 -26 -12 -30 -60 -4 -48 -8 -55 -30 -60 -23 -5 -25
-11 -28 -62 -3 -53 -5 -57 -30 -60 -23 -3 -28 -9 -32 -43 -4 -32 -10 -40 -30
-45 -21 -5 -26 -14 -34 -57 -7 -42 -13 -53 -30 -55 -17 -2 -22 -13 -30 -60 -7
-47 -12 -57 -30 -60 -17 -2 -22 -13 -30 -60 -7 -47 -12 -58 -27 -58 -22 0 -33
-33 -33 -105 l-1 -50 555 0 555 0 3 508 2 507 -291 0 -291 0 6 -22z"/>
<path d="M10977 6864 c-4 -4 -7 -20 -7 -36 l0 -28 76 0 75 0 -3 33 -3 32 -65
3 c-36 2 -69 0 -73 -4z"/>
<path d="M11247 6864 c-4 -4 -7 -20 -7 -36 l0 -28 91 0 90 0 -3 33 -3 32 -80
3 c-45 1 -84 0 -88 -4z"/>
<path d="M11547 6864 c-4 -4 -7 -20 -7 -36 l0 -28 76 0 75 0 -3 33 -3 32 -65
3 c-36 2 -69 0 -73 -4z"/>
<path d="M11814 6856 c-3 -8 -4 -23 -2 -33 3 -16 14 -18 88 -18 l85 0 0 30 0
30 -83 3 c-65 2 -83 0 -88 -12z"/>
<path d="M12114 6857 c-3 -9 -4 -24 -2 -34 3 -15 17 -19 95 -23 50 -3 93 -7
96 -10 2 -3 8 -27 13 -55 8 -44 12 -50 34 -50 23 0 25 4 28 57 3 55 2 57 -25
60 -22 2 -29 9 -31 31 -3 26 -5 27 -71 27 -38 0 -82 3 -100 6 -23 5 -32 2 -37
-9z"/>
<path d="M10277 6853 c-4 -3 -7 -17 -7 -29 0 -16 -7 -24 -22 -26 -28 -4 -37
-42 -13 -52 23 -9 35 1 35 30 0 21 5 24 35 24 32 0 35 2 35 30 0 26 -4 30 -28
30 -16 0 -32 -3 -35 -7z"/>
<path d="M10404 6845 c-14 -35 3 -45 76 -45 l70 0 0 30 0 30 -70 0 c-54 0 -72
-4 -76 -15z"/>
<path d="M10670 6830 l0 -30 90 0 90 0 0 30 0 30 -90 0 -90 0 0 -30z"/>
<path d="M10220 6500 l0 -120 30 0 30 0 0 120 0 120 -30 0 -30 0 0 -120z"/>
<path d="M11546 6545 c-3 -8 -3 -22 0 -30 5 -13 47 -15 318 -13 l311 3 0 25 0
25 -311 3 c-271 2 -313 0 -318 -13z"/>
<path d="M12324 6545 c-4 -9 -7 -48 -8 -88 l-1 -72 33 -3 32 -3 0 90 c0 91 0
91 -25 91 -14 0 -28 -7 -31 -15z"/>
<path d="M14456 6545 c-3 -8 -3 -22 0 -30 5 -13 47 -15 318 -13 l311 3 0 25 0
25 -311 3 c-271 2 -313 0 -318 -13z"/>
<path d="M12230 6116 c0 -342 2 -385 16 -390 23 -9 31 -1 37 36 9 50 12 712 3
726 -4 7 -18 12 -32 12 l-24 0 0 -384z"/>
<path d="M15142 6113 l3 -388 25 0 25 0 3 388 2 387 -30 0 -30 0 2 -387z"/>
<path d="M11485 6438 c-3 -7 -4 -171 -3 -363 l3 -350 25 0 25 0 0 360 0 360
-23 3 c-12 2 -24 -3 -27 -10z"/>
<path d="M14395 6438 c-3 -7 -4 -171 -3 -363 l3 -350 25 0 25 0 0 360 0 360
-23 3 c-12 2 -24 -3 -27 -10z"/>
<path d="M10220 6200 l0 -90 30 0 30 0 0 90 0 90 -30 0 -30 0 0 -90z"/>
<path d="M12322 6203 c3 -88 3 -88 31 -91 l27 -3 0 90 0 91 -30 0 -31 0 3 -87z"/>
<path d="M10220 5900 l0 -90 30 0 30 0 0 90 0 90 -30 0 -30 0 0 -90z"/>
<path d="M12324 5977 c-3 -8 -4 -47 -2 -88 3 -72 4 -74 31 -77 l27 -3 0 90 c0
91 0 91 -25 91 -14 0 -28 -6 -31 -13z"/>
<path d="M10220 5630 l0 -90 30 0 30 0 0 90 0 90 -30 0 -30 0 0 -90z"/>
<path d="M11594 5705 c-4 -8 -4 -22 0 -30 5 -13 44 -15 293 -13 l288 3 0 25 0
25 -288 3 c-249 2 -288 0 -293 -13z"/>
<path d="M12324 5707 c-2 -8 -4 -47 -2 -88 3 -71 4 -74 28 -74 25 0 25 1 25
85 0 81 -1 85 -23 88 -12 2 -24 -3 -28 -11z"/>
<path d="M14504 5705 c-4 -8 -4 -22 0 -30 5 -13 44 -15 293 -13 l288 3 0 25 0
25 -288 3 c-249 2 -288 0 -293 -13z"/>
<path d="M10220 5330 l0 -90 30 0 30 0 0 90 0 90 -30 0 -30 0 0 -90z"/>
<path d="M12324 5407 c-2 -8 -4 -47 -2 -88 3 -71 4 -74 28 -74 25 0 25 1 25
85 0 81 -1 85 -23 88 -12 2 -24 -3 -28 -11z"/>
<path d="M10222 5063 c3 -88 3 -88 31 -91 l27 -3 0 90 0 91 -30 0 -31 0 3 -87z"/>
<path d="M12324 5137 c-3 -8 -4 -47 -2 -88 l3 -74 30 0 30 0 0 85 0 85 -28 3
c-16 2 -29 -2 -33 -11z"/>
<path d="M8060 6530 c0 -27 -3 -30 -30 -30 -30 0 -30 0 -30 -60 0 -60 0 -60
30 -60 30 0 30 0 30 60 l0 60 45 0 c43 0 45 1 45 30 0 29 -2 30 -45 30 -43 0
-45 -1 -45 -30z"/>
<path d="M8270 6530 c0 -30 0 -30 60 -30 60 0 60 0 60 30 0 30 0 30 -60 30
-60 0 -60 0 -60 -30z"/>
<path d="M8510 6530 c0 -30 0 -30 60 -30 60 0 60 0 60 30 0 30 0 30 -60 30
-60 0 -60 0 -60 -30z"/>
<path d="M8690 6530 c0 -20 5 -30 15 -30 12 0 15 -13 15 -61 l0 -60 33 3 c32
3 32 3 32 58 0 55 0 55 -32 58 -29 3 -33 7 -33 33 0 19 -5 29 -15 29 -10 0
-15 -10 -15 -30z"/>
<path d="M8000 6230 c0 -60 0 -60 30 -60 30 0 30 0 30 60 0 60 0 60 -30 60
-30 0 -30 0 -30 -60z"/>
<path d="M8720 6230 c0 -60 0 -60 30 -60 30 0 30 0 30 60 0 60 0 60 -30 60
-30 0 -30 0 -30 -60z"/>
<path d="M8000 5990 c0 -60 0 -60 30 -60 30 0 30 0 30 60 0 60 0 60 -30 60
-30 0 -30 0 -30 -60z"/>
<path d="M8720 5991 l0 -61 30 0 31 0 -3 58 c-3 54 -4 57 -30 60 -28 3 -28 3
-28 -57z"/>
<path d="M8000 5765 c0 -43 1 -45 30 -45 27 0 30 -3 30 -30 0 -29 2 -30 45
-30 43 0 45 1 45 30 0 29 -2 30 -45 30 l-45 0 0 45 c0 43 -1 45 -30 45 -29 0
-30 -2 -30 -45z"/>
<path d="M8720 5770 c0 -27 -5 -43 -15 -46 -9 -4 -15 -19 -15 -35 0 -19 5 -29
15 -29 10 0 15 10 15 29 0 25 4 30 28 33 24 3 27 7 27 43 0 36 -3 40 -27 43
-27 3 -28 1 -28 -38z"/>
<path d="M8270 5690 c0 -30 0 -30 60 -30 60 0 60 0 60 30 0 30 0 30 -60 30
-60 0 -60 0 -60 -30z"/>
<path d="M8510 5690 c0 -30 0 -30 60 -30 60 0 60 0 60 30 0 30 0 30 -60 30
-60 0 -60 0 -60 -30z"/>
<path d="M13770 4018 c0 -13 -4 -29 -9 -37 -10 -15 -75 -41 -103 -41 -16 0
-18 -12 -18 -109 0 -159 2 -165 61 -181 33 -9 49 -19 49 -30 0 -21 20 -40 41
-40 11 0 19 -9 21 -22 3 -22 7 -23 98 -23 91 0 95 1 98 23 2 13 10 22 21 22
22 0 41 19 41 41 0 9 7 22 15 29 8 7 15 21 15 31 0 11 9 19 23 21 21 3 22 6
22 123 l0 120 -31 3 c-18 2 -40 12 -50 23 -9 10 -25 19 -35 19 -11 0 -19 9
-21 23 -3 21 -7 22 -120 25 -117 3 -118 2 -118 -20z m190 -49 c25 -6 57 -13
73 -16 20 -4 27 -11 27 -28 0 -12 7 -28 15 -35 11 -9 15 -33 15 -90 0 -57 -4
-81 -15 -90 -8 -7 -15 -23 -15 -36 0 -17 -6 -24 -19 -24 -32 0 -51 -11 -51
-30 0 -21 -56 -31 -120 -23 -29 4 -40 10 -40 23 0 19 -19 30 -50 30 -13 0 -20
9 -22 27 -2 19 -10 29 -28 33 -24 6 -25 9 -25 90 0 81 1 84 25 90 18 4 26 14
28 33 3 21 9 27 26 27 13 0 29 7 36 15 14 17 73 19 140 4z"/>
<path d="M5934 3936 c-10 -26 4 -48 28 -44 17 2 23 10 23 28 0 18 -6 26 -23
28 -13 2 -25 -3 -28 -12z"/>
<path d="M5604 3815 c-14 -36 3 -46 73 -43 65 3 68 4 68 28 0 24 -3 25 -68 28
-53 2 -68 0 -73 -13z"/>
<path d="M5544 3757 c-2 -8 -4 -47 -2 -88 3 -71 4 -74 28 -74 25 0 25 1 25 85
0 81 -1 85 -23 88 -12 2 -24 -3 -28 -11z"/>
<path d="M5754 3757 c-2 -8 -4 -47 -2 -88 3 -71 4 -74 28 -74 25 0 25 1 25 85
0 81 -1 85 -23 88 -12 2 -24 -3 -28 -11z"/>
<path d="M5604 3575 c-14 -36 3 -46 73 -43 65 3 68 4 68 28 0 24 -3 25 -68 28
-53 2 -68 0 -73 -13z"/>
<path d="M26004 11345 c-4 -8 -4 -22 0 -30 5 -13 169 -15 1423 -13 l1418 3 0
25 0 25 -1418 3 c-1254 2 -1418 0 -1423 -13z"/>
<path d="M28405 11255 c-3 -8 -7 -21 -9 -29 -3 -8 -15 -16 -28 -18 -17 -2 -24
-10 -26 -33 -10 -122 -13 -134 -35 -137 -20 -3 -22 -10 -25 -65 l-3 -62 58 -3
58 -3 3 -1603 2 -1603 28 3 27 3 3 1603 2 1602 44 0 c25 0 48 4 51 10 10 16
-16 170 -29 169 -28 -3 -34 4 -40 56 -3 31 -10 63 -15 73 -5 9 -12 25 -15 35
-7 21 -45 23 -51 2z"/>
<path d="M21264 10205 c-4 -8 -4 -22 0 -30 5 -13 51 -15 358 -13 l353 3 0 25
0 25 -353 3 c-307 2 -353 0 -358 -13z"/>
<path d="M20802 10153 c-29 -4 -33 -8 -30 -31 l3 -27 200 3 c110 2 208 6 218
8 12 4 17 13 15 27 -3 22 -6 22 -188 23 -102 1 -200 -1 -218 -3z"/>
<path d="M27760 7630 c-8 -5 -22 -11 -31 -13 -20 -7 -29 -68 -28 -196 0 -134
9 -175 36 -179 14 -2 23 -12 25 -25 3 -20 9 -22 72 -22 l68 0 15 44 c15 43 14
146 -2 219 l-7 32 -69 0 c-66 0 -69 1 -69 24 0 57 12 86 36 86 16 0 24 -7 26
-22 2 -19 10 -24 46 -26 40 -3 42 -2 42 26 0 44 -27 62 -91 61 -30 0 -61 -4
-69 -9z m124 -251 c3 -21 3 -57 0 -79 l-7 -40 -48 0 -48 0 -6 44 c-6 37 0 97
10 116 2 3 23 4 48 2 43 -4 45 -5 51 -43z"/>
<path d="M28270 7630 c-8 -5 -22 -11 -31 -13 -20 -7 -29 -68 -28 -196 0 -134
9 -175 36 -179 14 -2 23 -12 25 -25 2 -18 11 -23 48 -25 25 -2 63 -1 85 3 38
5 42 9 54 49 13 44 11 145 -4 214 l-7 32 -84 0 c-82 0 -84 1 -84 24 0 57 12
86 36 86 16 0 24 -7 26 -22 3 -20 10 -23 61 -26 l57 -3 0 31 c0 20 -6 32 -17
36 -10 3 -26 10 -35 15 -22 11 -118 11 -138 -1z m125 -251 c4 -21 4 -57 0 -79
l-7 -40 -48 0 -49 0 -6 44 c-6 37 0 97 10 116 2 3 24 4 48 2 44 -4 46 -5 52
-43z"/>
<path d="M28600 7631 c-8 -5 -23 -12 -32 -15 -21 -6 -25 -64 -5 -71 6 -3 32
-2 57 3 36 6 46 12 48 30 2 16 10 22 27 22 19 0 24 -7 30 -40 10 -58 -3 -120
-24 -120 -22 0 -41 -19 -41 -42 0 -11 -7 -18 -18 -18 -23 0 -42 -19 -42 -41 0
-11 -9 -19 -22 -21 -19 -2 -24 -12 -31 -52 -13 -78 -14 -77 125 -74 l123 3 0
30 c0 30 -1 30 -57 33 -54 3 -58 5 -58 27 0 18 5 25 20 25 14 0 20 7 20 23 0
27 17 47 41 47 19 0 27 31 35 140 8 103 0 112 -102 117 -43 2 -86 -1 -94 -6z"/>
<path d="M28912 7533 c-4 -10 -7 -90 -7 -178 l0 -160 35 0 35 0 3 113 c2 99 5
112 20 112 23 0 42 19 42 42 0 11 7 18 20 18 11 0 21 -1 21 -2 1 -2 4 -66 8
-143 l6 -140 40 0 40 0 5 137 c3 78 10 142 16 148 15 15 42 2 46 -23 2 -14 11
-23 25 -25 21 -3 22 -8 25 -120 l3 -117 35 0 35 0 3 100 c2 86 -11 231 -23
243 -8 8 -124 14 -149 8 -17 -4 -26 -13 -26 -26 0 -29 -38 -27 -42 3 -3 19 -9
22 -53 22 -44 0 -50 -2 -55 -25 -7 -30 -33 -33 -39 -5 -6 37 -56 49 -69 18z"/>
<path d="M28040 7245 c-22 -26 -8 -50 30 -50 25 0 36 5 38 18 5 23 -15 47 -38
47 -10 0 -23 -7 -30 -15z"/>
<path d="M28405 7058 c-3 -7 -6 -722 -8 -1588 l-2 -1575 -58 -3 -58 -3 3 -62
c3 -55 5 -62 25 -65 22 -3 25 -15 35 -137 2 -22 9 -31 28 -35 18 -4 26 -13 28
-33 3 -22 8 -27 33 -27 24 0 29 4 29 24 0 14 4 27 10 31 5 3 12 32 16 65 6 56
12 64 40 61 13 -1 39 153 29 169 -3 6 -26 10 -51 10 l-44 0 -2 1588 -3 1587
-23 3 c-12 2 -24 -3 -27 -10z"/>
<path d="M9014 2946 c-15 -38 0 -51 60 -56 l60 -5 4 -52 c3 -51 2 -53 -21 -53
-22 0 -25 -6 -38 -75 -10 -59 -17 -75 -30 -75 -13 0 -19 -12 -24 -51 -4 -30
-3 -55 3 -61 5 -5 31 -8 58 -6 l49 3 5 95 c5 90 6 95 28 98 26 4 28 8 37 74 5
38 10 47 28 50 17 2 23 12 30 52 13 77 14 76 -123 76 -96 0 -122 -3 -126 -14z"/>
<path d="M9587 2954 c-4 -4 -7 -15 -7 -25 0 -11 -9 -19 -22 -21 -28 -4 -37
-45 -37 -173 0 -127 9 -169 36 -173 14 -2 23 -12 25 -25 3 -20 9 -22 68 -22
59 0 65 2 68 22 2 13 11 23 25 25 27 4 36 46 36 173 0 127 -9 169 -36 173 -14
2 -23 12 -25 25 -3 19 -10 22 -63 25 -34 2 -64 0 -68 -4z m117 -101 c3 -21 6
-74 6 -118 0 -44 -3 -97 -6 -117 -7 -38 -7 -38 -54 -38 -47 0 -47 0 -54 38 -3
20 -6 73 -6 117 0 44 3 97 6 118 7 37 7 37 54 37 47 0 47 0 54 -37z"/>
<path d="M9914 2943 c-3 -10 -11 -29 -17 -42 -16 -32 -16 -300 0 -332 6 -13
14 -32 17 -42 5 -15 15 -18 68 -15 56 3 63 5 66 25 2 13 11 23 25 25 27 4 36
46 36 173 0 127 -9 169 -36 173 -14 2 -23 12 -25 25 -3 20 -10 22 -66 25 -53
3 -63 0 -68 -15z m120 -90 c3 -21 6 -74 6 -118 0 -44 -3 -97 -6 -117 -7 -38
-7 -38 -54 -38 -47 0 -47 0 -54 38 -3 20 -6 73 -6 117 0 44 3 97 6 118 7 37 7
37 54 37 47 0 47 0 54 -37z"/>
<path d="M5987 2833 c-4 -3 -7 -14 -7 -24 0 -17 -17 -21 -135 -31 -22 -2 -31
-9 -35 -28 -4 -18 -13 -26 -33 -28 -33 -4 -37 -32 -4 -32 28 0 47 -17 40 -36
-3 -9 12 -15 56 -20 57 -6 65 -12 62 -40 -2 -14 158 -39 170 -27 4 4 9 33 11
63 l3 55 1108 3 c973 2 1107 4 1107 17 0 13 -134 15 -1107 17 l-1108 3 -3 58
-3 57 -58 0 c-32 0 -61 -3 -64 -7z"/>
<path d="M10222 2823 c-4 -10 -7 -83 -7 -163 l0 -145 35 0 35 0 3 98 c2 85 5
97 20 97 23 0 42 19 42 42 0 11 7 18 20 18 24 0 21 12 29 -135 l6 -120 40 0
40 0 5 122 c3 67 10 127 16 133 15 15 42 2 46 -23 2 -14 11 -23 25 -25 21 -3
22 -9 25 -105 l3 -102 35 0 35 0 3 85 c3 75 -12 217 -23 228 -2 3 -36 7 -75
10 -73 5 -104 -6 -93 -34 3 -8 -1 -14 -11 -14 -10 0 -15 8 -13 23 2 21 -2 22
-63 22 -60 0 -64 -2 -70 -25 -7 -30 -33 -33 -39 -5 -6 37 -56 49 -69 18z"/>
<path d="M13518 2783 l-3 -58 -1047 -3 c-921 -2 -1048 -4 -1048 -17 0 -13 127
-15 1048 -17 l1047 -3 3 -55 c2 -30 7 -59 11 -63 12 -12 172 13 170 27 -3 28
5 34 62 40 44 5 59 11 56 20 -7 19 12 36 40 36 33 0 29 28 -4 32 -20 2 -29 10
-33 28 -4 19 -13 26 -35 28 -122 10 -134 13 -137 35 -3 20 -10 22 -65 25 l-62
3 -3 -58z"/>
<path d="M9350 2565 c-22 -26 -8 -50 30 -50 25 0 36 5 38 18 5 23 -15 47 -38
47 -10 0 -23 -7 -30 -15z"/>
<path d="M19307 2383 c-4 -3 -7 -14 -7 -24 0 -11 -9 -19 -22 -21 -18 -2 -24
-11 -26 -36 -4 -39 7 -45 68 -34 36 6 46 12 48 30 2 16 10 22 27 22 19 0 24
-7 30 -40 10 -59 -3 -120 -25 -120 -9 0 -23 -7 -30 -15 -7 -8 -20 -15 -29 -15
-22 0 -41 -19 -41 -41 0 -11 -9 -19 -22 -21 -19 -2 -24 -12 -31 -52 -13 -78
-14 -77 125 -74 l123 3 0 30 c0 30 -1 30 -57 33 -54 3 -58 5 -58 27 0 18 5 25
19 25 14 0 21 8 23 26 3 26 14 37 50 48 23 7 35 139 17 200 -11 37 -18 45 -42
50 -40 8 -132 8 -140 -1z"/>
<path d="M19637 2383 c-4 -3 -7 -14 -7 -24 0 -11 -9 -19 -22 -21 -18 -2 -24
-11 -26 -36 -4 -39 7 -45 68 -34 36 6 46 12 48 30 2 16 10 22 27 22 19 0 24
-7 30 -40 10 -59 -3 -120 -25 -120 -9 0 -23 -7 -30 -15 -7 -8 -20 -15 -29 -15
-22 0 -41 -19 -41 -41 0 -11 -9 -19 -22 -21 -19 -2 -24 -12 -31 -52 -13 -78
-14 -77 125 -74 l123 3 0 30 c0 30 -1 30 -57 33 -54 3 -58 5 -58 27 0 18 5 25
19 25 14 0 21 8 23 26 3 26 14 37 50 48 23 7 35 139 17 200 -11 37 -18 45 -42
50 -40 8 -132 8 -140 -1z"/>
<path d="M20123 2384 c-25 -6 -37 -56 -31 -134 2 -38 7 -46 26 -48 28 -4 31
-42 2 -42 -10 0 -24 -9 -30 -19 -14 -26 -13 -103 2 -150 14 -44 31 -51 118
-51 87 0 104 7 118 51 25 79 10 169 -28 169 -29 0 -27 38 3 42 21 3 22 7 22
85 -1 45 -4 85 -8 89 -9 9 -162 15 -194 8z m137 -114 l0 -50 -50 0 -50 0 0 50
0 50 50 0 50 0 0 -50z m8 -154 c2 -10 1 -38 -3 -62 l-6 -44 -48 0 c-46 0 -49
1 -55 31 -8 42 -8 84 1 93 4 4 30 6 58 4 39 -2 51 -7 53 -22z"/>
<path d="M20507 2384 c-4 -4 -7 -15 -7 -25 0 -11 -9 -19 -22 -21 -28 -4 -37
-45 -37 -173 0 -127 9 -169 36 -173 14 -2 23 -12 25 -25 3 -20 9 -22 68 -22
59 0 65 2 68 22 2 13 11 23 25 25 27 4 36 46 36 173 0 127 -9 169 -36 173 -14
2 -23 12 -25 25 -3 19 -10 22 -63 25 -34 2 -64 0 -68 -4z m117 -101 c3 -21 6
-74 6 -118 0 -44 -3 -97 -6 -117 -7 -38 -7 -38 -54 -38 -47 0 -47 0 -54 38 -3
20 -6 73 -6 117 0 44 3 97 6 118 7 37 7 37 54 37 47 0 47 0 54 -37z"/>
<path d="M20782 2253 c-4 -10 -7 -83 -7 -163 l0 -145 35 0 35 0 3 98 c2 85 5
97 20 97 23 0 42 19 42 42 0 11 7 18 20 18 24 0 21 12 29 -135 l6 -120 55 0
55 0 5 122 c3 67 10 127 16 133 15 15 42 2 46 -23 2 -14 11 -23 25 -25 21 -3
22 -9 25 -105 l3 -102 35 0 35 0 3 85 c3 73 -12 217 -23 228 -8 8 -124 14
-149 8 -17 -4 -26 -13 -26 -26 0 -29 -38 -27 -42 3 -3 20 -8 22 -68 22 -60 0
-64 -2 -70 -25 -7 -30 -33 -33 -39 -5 -6 37 -56 49 -69 18z"/>
<path d="M26898 2213 l-3 -58 -2712 -3 c-2401 -2 -2713 -4 -2713 -17 0 -13
312 -15 2713 -17 l2712 -3 3 -55 c2 -30 7 -59 11 -63 12 -12 172 13 170 27 -3
28 5 34 62 40 44 5 59 11 56 20 -7 19 12 36 40 36 33 0 29 28 -4 32 -20 2 -29
10 -33 28 -4 19 -13 26 -35 28 -122 10 -134 13 -137 35 -3 20 -10 22 -65 25
l-62 3 -3 -58z"/>
<path d="M19940 1995 c-22 -26 -8 -50 30 -50 25 0 36 5 38 18 5 23 -15 47 -38
47 -10 0 -23 -7 -30 -15z"/>
<path d="M4038 983 c-2 -22 -9 -29 -33 -33 -22 -4 -31 -11 -33 -28 -2 -13 -10
-22 -21 -22 -21 0 -44 -23 -34 -33 3 -4 30 -7 59 -7 l53 0 3 -147 3 -148 35 0
35 0 0 220 0 220 -32 3 c-28 3 -32 0 -35 -25z"/>
<path d="M4476 1002 c-13 -21 -27 -185 -16 -196 5 -5 40 -10 78 -11 l67 0 0
-60 c0 -58 -1 -60 -27 -63 -20 -2 -28 -9 -28 -23 0 -14 -7 -19 -25 -19 -18 0
-25 5 -25 19 0 10 -7 24 -16 32 -13 10 -17 10 -25 -2 -12 -19 -11 -56 2 -64 6
-4 8 -13 5 -20 -9 -25 21 -36 86 -33 56 3 63 5 66 25 2 14 11 23 25 25 19 3
23 12 31 61 4 31 5 86 1 121 l-6 64 -61 6 c-48 6 -59 10 -54 22 3 9 6 24 6 34
0 16 9 19 51 22 55 3 78 21 66 52 -5 13 -23 16 -101 16 -52 0 -97 -4 -100 -8z"/>
<path d="M4823 1004 c-17 -4 -23 -15 -28 -48 -11 -68 -3 -101 23 -104 28 -4
31 -42 3 -42 -26 0 -29 -6 -37 -83 -4 -44 -2 -80 7 -110 14 -50 29 -57 119
-57 90 0 105 7 119 57 9 30 11 66 7 110 -8 77 -11 83 -37 83 -28 0 -25 38 4
42 20 3 22 8 21 70 0 38 -4 71 -7 75 -9 8 -163 13 -194 7z m137 -99 l0 -35
-50 0 -50 0 0 35 0 35 50 0 50 0 0 -35z m5 -155 c4 -22 4 -58 0 -80 l-7 -40
-48 0 -48 0 -7 40 c-4 22 -4 58 0 80 l7 40 48 0 48 0 7 -40z"/>
<path d="M5120 870 c-6 -12 -9 -75 -8 -162 l3 -143 35 0 35 0 5 115 c4 90 8
114 19 112 19 -4 41 17 41 39 0 12 7 19 20 19 11 0 21 -1 21 -2 1 -2 4 -66 8
-143 l6 -140 55 0 55 0 6 140 c4 77 7 141 8 143 0 1 12 2 25 2 18 0 25 -6 28
-22 2 -15 11 -24 25 -26 21 -3 22 -8 25 -120 l3 -117 35 0 35 0 -1 148 c0 93
-4 151 -12 159 -17 17 -149 23 -178 7 -20 -10 -29 -10 -44 -1 -25 15 -115 16
-139 0 -15 -9 -25 -9 -46 0 -37 17 -53 15 -65 -8z"/>
<path d="M4280 615 c-6 -8 -10 -22 -8 -32 5 -26 71 -26 76 0 8 39 -42 63 -68
32z"/>
</g>
</svg>
